<svg width="25" height="25" viewBox="0 0 25 25" fill="none" xmlns="http://www.w3.org/2000/svg">
<path d="M20.3094 8.32187L12.5 15.9344L4.69063 8.32187C4.5511 8.18559 4.36379 8.10929 4.16875 8.10929C3.97371 8.10929 3.7864 8.18559 3.64688 8.32187C3.57932 8.38807 3.52564 8.46708 3.489 8.55427C3.45236 8.64147 3.43349 8.7351 3.43349 8.82968C3.43349 8.92427 3.45236 9.0179 3.489 9.1051C3.52564 9.19229 3.57932 9.2713 3.64688 9.3375L11.9547 17.4375C12.1006 17.5797 12.2963 17.6593 12.5 17.6593C12.7037 17.6593 12.8994 17.5797 13.0453 17.4375L21.3531 9.33906C21.4212 9.27282 21.4752 9.19361 21.5122 9.10613C21.5491 9.01864 21.5681 8.92464 21.5681 8.82968C21.5681 8.73473 21.5491 8.64073 21.5122 8.55324C21.4752 8.46576 21.4212 8.38655 21.3531 8.32031C21.2136 8.18402 21.0263 8.10773 20.8313 8.10773C20.6362 8.10773 20.4489 8.18402 20.3094 8.32031V8.32187Z" fill="#425C5A"/>
</svg>
