<svg width="50" height="50" viewBox="0 0 50 50" fill="none" xmlns="http://www.w3.org/2000/svg">
<g clip-path="url(#clip0_3_62)">
<path d="M42.775 11.7188C42.9494 11.7188 43.1168 11.6365 43.2402 11.4899C43.3635 11.3434 43.4329 11.1447 43.4329 10.9375V8.33596C43.4322 7.65742 43.2049 7.00692 42.8008 6.52712C42.3968 6.04732 41.849 5.77741 41.2776 5.77658H37.7421L36.9355 2.95002C36.8807 2.7578 36.765 2.59845 36.613 2.50571C36.461 2.41297 36.2845 2.39412 36.121 2.45315L16.9723 9.36565C16.8138 9.43431 16.6836 9.57253 16.6083 9.75183C16.533 9.93113 16.5185 10.1379 16.5678 10.3295C16.617 10.5211 16.7262 10.683 16.873 10.7819C17.0197 10.8808 17.1928 10.9091 17.3565 10.861L35.8947 4.16721L37.6618 10.3625C37.7178 10.5587 37.8372 10.7205 37.9936 10.8122C38.1501 10.9039 38.3308 10.9181 38.496 10.8516C38.6613 10.7851 38.7975 10.6433 38.8747 10.4576C38.9519 10.2718 38.9639 10.0572 38.9079 9.86096L38.1881 7.33752H41.2789C41.7421 7.33752 42.1184 7.7844 42.1184 8.3344V10.9375C42.1171 11.3688 42.4118 11.7188 42.775 11.7188Z" fill="#D6A217"/>
<path d="M48.0263 23.4375C47.8518 23.4375 47.6845 23.5198 47.5611 23.6663C47.4377 23.8128 47.3684 24.0116 47.3684 24.2188C47.3684 24.426 47.4377 24.6247 47.5611 24.7712C47.6845 24.9177 47.8518 25 48.0263 25C48.4882 25 48.6842 25.2328 48.6842 25.7813V35.1563C48.6842 35.7047 48.4882 35.9375 48.0263 35.9375H37.5C37.0382 35.9375 36.8421 35.7047 36.8421 35.1563V27.3438C36.8421 26.7953 37.0382 26.5625 37.5 26.5625H45.3947C45.5692 26.5625 45.7366 26.4802 45.8599 26.3337C45.9833 26.1872 46.0526 25.9885 46.0526 25.7813V16.4063C46.0526 14.9828 45.2776 14.0625 44.0789 14.0625H3.94737C2.325 14.0625 1.31579 12.8641 1.31579 10.9375C1.31579 9.01094 2.325 7.81251 3.94737 7.81251H10.6263L6.64474 9.37188C6.55971 9.401 6.48051 9.45019 6.41186 9.5165C6.34322 9.58281 6.28654 9.66489 6.24523 9.75782C6.20392 9.85074 6.17882 9.95261 6.17143 10.0573C6.16405 10.162 6.17452 10.2675 6.20224 10.3672C6.22996 10.467 6.27435 10.5592 6.33274 10.6381C6.39114 10.7171 6.46235 10.7812 6.54211 10.8267C6.62188 10.8722 6.70855 10.8982 6.79695 10.903C6.88534 10.9078 6.97365 10.8914 7.05658 10.8547L30.8974 1.52188C30.9794 1.48967 31.0554 1.43857 31.1208 1.37151C31.1863 1.30445 31.2399 1.22274 31.2788 1.13104C31.3177 1.03934 31.3409 0.939453 31.3473 0.837078C31.3536 0.734704 31.3429 0.631847 31.3158 0.534382C31.2887 0.436916 31.2456 0.346751 31.1892 0.269032C31.1327 0.191314 31.0639 0.127566 30.9867 0.0814265C30.9094 0.0352873 30.8253 0.00766127 30.7391 0.000125544C30.6529 -0.00741018 30.5663 0.00529203 30.4842 0.0375069L14.5632 6.27188C14.5329 6.26563 14.5053 6.25001 14.4737 6.25001H3.94737C1.58684 6.25001 0 8.13438 0 10.9375V45.3125C0 48.1156 1.58684 50 3.94737 50H44.0789C45.2776 50 46.0526 49.0797 46.0526 47.6563V39.8438C46.0526 39.6366 45.9833 39.4378 45.8599 39.2913C45.7366 39.1448 45.5692 39.0625 45.3947 39.0625C45.2203 39.0625 45.0529 39.1448 44.9295 39.2913C44.8062 39.4378 44.7368 39.6366 44.7368 39.8438V47.6563C44.7368 48.2047 44.5408 48.4375 44.0789 48.4375H3.94737C2.325 48.4375 1.31579 47.2391 1.31579 45.3125V14.55C1.99079 15.2266 2.88421 15.625 3.94737 15.625H44.0789C44.5408 15.625 44.7368 15.8578 44.7368 16.4063V25H37.5C36.3013 25 35.5263 25.9203 35.5263 27.3438V35.1563C35.5263 36.5797 36.3013 37.5 37.5 37.5H48.0263C49.225 37.5 50 36.5797 50 35.1563V25.7813C50 24.3578 49.225 23.4375 48.0263 23.4375Z" fill="#D6A217"/>
<path d="M42.1052 32.8125C42.8319 32.8125 43.421 32.1129 43.421 31.25C43.421 30.3871 42.8319 29.6875 42.1052 29.6875C41.3785 29.6875 40.7894 30.3871 40.7894 31.25C40.7894 32.1129 41.3785 32.8125 42.1052 32.8125Z" fill="#D6A217"/>
</g>
<defs>
<clipPath id="clip0_3_62">
<rect width="50" height="50" fill="white"/>
</clipPath>
</defs>
</svg>
