<svg width="50" height="50" viewBox="0 0 50 50" fill="none" xmlns="http://www.w3.org/2000/svg">
<path d="M26.9584 45.8333H23.0209C22.0927 45.8333 21.2024 45.4646 20.546 44.8082C19.8897 44.1518 19.5209 43.2616 19.5209 42.3333V40.0625C19.5096 39.9287 19.4606 39.8009 19.3794 39.6939C19.2983 39.5869 19.1884 39.5052 19.0626 39.4583C18.9351 39.3767 18.7869 39.3333 18.6355 39.3333C18.4841 39.3333 18.3359 39.3767 18.2084 39.4583L16.6667 41.125C16.3434 41.4507 15.9587 41.7091 15.535 41.8855C15.1113 42.0619 14.6569 42.1527 14.198 42.1527C13.7391 42.1527 13.2846 42.0619 12.8609 41.8855C12.4372 41.7091 12.0526 41.4507 11.7292 41.125L8.87508 38.3333C8.54471 38.0106 8.28232 37.6249 8.10341 37.1991C7.92451 36.7733 7.8327 36.316 7.83341 35.8542C7.83475 34.9094 8.20913 34.0034 8.87508 33.3333L10.4167 31.7917C10.4912 31.6769 10.5308 31.543 10.5308 31.4062C10.5308 31.2695 10.4912 31.1356 10.4167 31.0208C10.2917 30.7083 10.0834 30.4792 9.79175 30.4792H7.66675C6.73658 30.4737 5.84639 30.1003 5.1906 29.4406C4.53481 28.7809 4.16673 27.8885 4.16675 26.9583V23.0208C4.16675 22.0926 4.5355 21.2023 5.19187 20.546C5.84825 19.8896 6.73849 19.5208 7.66675 19.5208H9.93758C10.0714 19.5095 10.1992 19.4605 10.3062 19.3793C10.4131 19.2982 10.4948 19.1883 10.5417 19.0625C10.6234 18.935 10.6668 18.7868 10.6668 18.6354C10.6668 18.484 10.6234 18.3358 10.5417 18.2083L8.87508 16.6667C8.54943 16.3433 8.29097 15.9587 8.11459 15.535C7.93822 15.1113 7.84742 14.6569 7.84742 14.1979C7.84742 13.739 7.93822 13.2846 8.11459 12.8609C8.29097 12.4372 8.54943 12.0525 8.87508 11.7292L11.6667 8.875C11.9863 8.54619 12.3685 8.28463 12.7907 8.10574C13.2128 7.92685 13.6666 7.83423 14.1251 7.83333C14.5964 7.83126 15.0635 7.92221 15.4997 8.10095C15.9358 8.2797 16.3324 8.54274 16.6667 8.875L18.2084 10.4167C18.3232 10.4911 18.457 10.5307 18.5938 10.5307C18.7306 10.5307 18.8645 10.4911 18.9792 10.4167C19.2917 10.2917 19.5209 10.0833 19.5209 9.79166V7.66666C19.5264 6.7365 19.8998 5.8463 20.5595 5.19052C21.2192 4.53473 22.1116 4.16665 23.0418 4.16666H27.0834C28.0117 4.16666 28.9019 4.53541 29.5583 5.19179C30.2147 5.84817 30.5834 6.73841 30.5834 7.66666V9.9375C30.5947 10.0713 30.6438 10.1991 30.7249 10.3061C30.8061 10.4131 30.9159 10.4948 31.0417 10.5417C31.1692 10.6233 31.3174 10.6667 31.4688 10.6667C31.6202 10.6667 31.7684 10.6233 31.8959 10.5417L33.3334 8.875C33.6568 8.54934 34.0414 8.29088 34.4651 8.11451C34.8888 7.93814 35.3432 7.84734 35.8022 7.84734C36.2611 7.84734 36.7155 7.93814 37.1392 8.11451C37.5629 8.29088 37.9475 8.54934 38.2709 8.875L41.1251 11.6667C41.4545 11.9901 41.7163 12.3759 41.8951 12.8015C42.074 13.2272 42.1663 13.6842 42.1668 14.1458C42.1768 14.6152 42.0894 15.0815 41.9101 15.5154C41.7308 15.9493 41.4635 16.3413 41.1251 16.6667L39.5834 18.2083C39.509 18.3231 39.4694 18.457 39.4694 18.5937C39.4694 18.7305 39.509 18.8644 39.5834 18.9792C39.7084 19.2917 39.9167 19.5208 40.2084 19.5208H42.4792C43.3838 19.5637 44.2371 19.9535 44.8618 20.6092C45.4865 21.2649 45.8344 22.1361 45.8334 23.0417V27.0833C45.8334 28.0116 45.4647 28.9018 44.8083 29.5582C44.1519 30.2146 43.2617 30.5833 42.3334 30.5833H40.0626C39.9288 30.5946 39.801 30.6437 39.694 30.7248C39.587 30.806 39.5053 30.9159 39.4584 31.0417C39.384 31.1564 39.3444 31.2903 39.3444 31.4271C39.3444 31.5639 39.384 31.6977 39.4584 31.8125L41.0626 33.4167C41.3882 33.7401 41.6467 34.1247 41.8231 34.5484C41.9994 34.9721 42.0902 35.4265 42.0902 35.8854C42.0902 36.3444 41.9994 36.7988 41.8231 37.2225C41.6467 37.6462 41.3882 38.0308 41.0626 38.3542L38.3334 41.125C38.0138 41.4538 37.6317 41.7154 37.2095 41.8943C36.7873 42.0732 36.3336 42.1658 35.8751 42.1667C34.9448 42.1545 34.0557 41.7809 33.3959 41.125L31.7918 39.5833C31.677 39.5089 31.5431 39.4693 31.4063 39.4693C31.2695 39.4693 31.1357 39.5089 31.0209 39.5833C30.7084 39.7083 30.4793 39.9167 30.4793 40.2083V42.4792C30.4364 43.3838 30.0466 44.2371 29.3909 44.8617C28.7352 45.4864 27.864 45.8343 26.9584 45.8333ZM23.6876 41.6667H26.3126V40.0625C26.3215 39.1018 26.6152 38.1653 27.1567 37.3716C27.6982 36.578 28.463 35.9629 29.3543 35.6042C30.2492 35.213 31.2404 35.0972 32.2014 35.2716C33.1624 35.446 34.0497 35.9026 34.7501 36.5833L35.8751 37.7083L37.7084 35.875L36.5834 34.7292C35.907 34.0393 35.4508 33.1641 35.2728 32.2145C35.0947 31.2649 35.2029 30.2838 35.5834 29.3958C35.9453 28.5084 36.5619 27.748 37.3553 27.2105C38.1486 26.6729 39.0834 26.3822 40.0417 26.375H41.6668V23.6875H40.0626C39.1019 23.6786 38.1654 23.3849 37.3717 22.8434C36.5781 22.3019 35.963 21.5371 35.6043 20.6458C35.2131 19.7509 35.0973 18.7597 35.2717 17.7987C35.4461 16.8377 35.9027 15.9504 36.5834 15.25L37.7084 14.125L35.8751 12.2917L34.7293 13.4167C34.0287 14.0566 33.1598 14.483 32.2251 14.6457C31.2903 14.8085 30.3284 14.7007 29.4529 14.3351C28.5773 13.9696 27.8243 13.3614 27.2828 12.5823C26.7412 11.8032 26.4335 10.8856 26.3959 9.9375V8.33333H23.6876V9.9375C23.6787 10.8982 23.3849 11.8347 22.8435 12.6284C22.302 13.422 21.5372 14.0371 20.6459 14.3958C19.751 14.787 18.7598 14.9028 17.7988 14.7284C16.8378 14.554 15.9505 14.0974 15.2501 13.4167L14.1251 12.2917L12.2917 14.125L13.4167 15.2708C14.0567 15.9714 14.4831 16.8402 14.6458 17.775C14.8085 18.7098 14.7008 19.6716 14.3352 20.5472C13.9696 21.4228 13.3615 22.1757 12.5824 22.7173C11.8033 23.2589 10.8857 23.5666 9.93758 23.6042H8.33342V26.2292H9.93758C10.8983 26.238 11.8348 26.5318 12.6284 27.0733C13.4221 27.6147 14.0372 28.3795 14.3959 29.2708C14.7871 30.1658 14.9029 31.1569 14.7285 32.1179C14.5541 33.079 14.0974 33.9662 13.4167 34.6667L12.2917 35.7917L14.1251 37.625L15.2709 36.5C15.9715 35.8601 16.8403 35.4337 17.7751 35.2709C18.7099 35.1082 19.6717 35.216 20.5473 35.5815C21.4229 35.9471 22.1758 36.5552 22.7174 37.3343C23.259 38.1134 23.5667 39.0311 23.6042 39.9792L23.6876 41.6667Z" fill="#D6A217"/>
<path d="M24.9999 32.2917C23.5578 32.2917 22.148 31.864 20.9489 31.0628C19.7498 30.2616 18.8152 29.1228 18.2633 27.7904C17.7114 26.458 17.567 24.9919 17.8484 23.5775C18.1297 22.163 18.8242 20.8638 19.8439 19.844C20.8637 18.8243 22.1629 18.1298 23.5774 17.8484C24.9918 17.5671 26.4579 17.7115 27.7903 18.2634C29.1227 18.8153 30.2615 19.7499 31.0627 20.949C31.8639 22.1481 32.2916 23.5578 32.2916 25C32.2916 26.9339 31.5234 28.7885 30.1559 30.156C28.7885 31.5234 26.9338 32.2917 24.9999 32.2917ZM24.9999 21.875C24.3819 21.875 23.7777 22.0583 23.2638 22.4017C22.7499 22.745 22.3493 23.2331 22.1128 23.8041C21.8763 24.3751 21.8144 25.0035 21.935 25.6097C22.0555 26.2158 22.3532 26.7727 22.7902 27.2097C23.2273 27.6467 23.7841 27.9444 24.3903 28.065C24.9965 28.1855 25.6248 28.1236 26.1958 27.8871C26.7668 27.6506 27.2549 27.2501 27.5983 26.7362C27.9416 26.2223 28.1249 25.6181 28.1249 25C28.1249 24.1712 27.7957 23.3763 27.2096 22.7903C26.6236 22.2042 25.8287 21.875 24.9999 21.875Z" fill="#D6A217"/>
</svg>
