<svg width="400" height="400" viewBox="0 0 400 400" fill="none" xmlns="http://www.w3.org/2000/svg">
<g opacity="0.85" clip-path="url(#clip0_6_126)">
<path d="M302.772 112.513C305.434 113.054 307.996 113.289 308.421 117.098C308.637 119.037 311.255 119.236 313.187 119.288C316.652 119.383 317.559 119.943 317.352 123.033C317.186 125.528 317.992 126.266 320.325 126.472C323.397 126.742 326.275 127.618 329.508 126.375C332.417 125.257 334.081 126.733 335.462 130.237C335.755 130.979 336.175 131.969 337.042 131.434C340.995 128.995 345.716 130.895 349.951 128.742C352.764 127.312 356.773 127.96 359.595 130.673C360.96 131.984 362.58 132.615 364.273 131.462C366.069 130.239 367.557 131.364 368.481 132.315C371.417 135.334 374.732 134.437 378.101 133.795C378.551 133.709 378.988 133.546 379.431 133.42C381.261 132.895 379.546 137.095 381.597 135.305C382.684 134.356 383.444 134.158 384.673 134.009C390.272 133.328 394.401 136.504 398.694 139.319L396.641 144.143C396.492 144.105 396.343 144.071 396.193 144.039C394.975 143.785 393.863 141.654 393.496 142.237C392.737 143.44 391.209 144.469 391.408 146.152C391.662 148.311 390.594 148.821 388.682 148.912C386.979 148.994 385.239 149.295 383.92 150.641C382.846 151.739 381.573 151.761 380.05 151.702C376.114 151.551 373.995 153.42 373.503 157.409C372.998 161.502 369.176 162.97 367.155 165.852C366.502 166.784 365.916 165.577 365.566 164.955C363.962 162.113 364.955 159.471 366.386 156.977C367.078 155.771 368.191 154.812 369.069 153.705C369.601 153.034 370.987 152.602 370.356 151.559C369.798 150.635 368.514 150.384 367.401 150.413C366.012 150.45 365.071 151.403 364.43 152.485C363.314 154.371 361.998 154.094 360.064 153.747C355.021 152.843 349.8 152.314 346.287 157.375C345.358 158.715 342.48 158.91 343.358 161.086C344.183 163.134 346.726 161.779 348.449 162.309C349.722 162.701 351.437 162.262 351.494 163.975C351.555 165.822 353.435 167.889 351.338 169.534C350.687 170.045 350.1 170.356 350.012 171.226C349.967 171.664 349.982 172.327 349.446 172.326C348.939 172.324 348.994 171.67 348.942 171.248C348.904 170.937 348.93 170.62 348.894 170.308C348.794 169.434 349.18 168.485 348.501 167.698C348.264 168.584 348.183 169.552 347.763 170.341C345.766 174.104 343.636 177.659 338.966 178.791C334.688 179.829 334.263 180.705 335.292 185.025C335.667 186.6 335.676 187.941 333.987 188.498C332.354 189.037 331.845 187.52 331.282 186.47C330.848 185.661 330.604 184.709 330.462 183.793C330.255 182.451 329.51 182.33 328.464 182.714C327.65 183.013 326.786 184.027 326.043 182.826C325.53 181.997 325.204 181.448 324.464 182.488C324.021 183.111 323.323 183.878 323.41 184.484C323.598 185.803 324.576 184.736 325.212 184.798C327.03 184.976 328.744 185.192 326.355 187.335C325.271 188.307 325.595 189.579 325.844 190.848C327.112 197.327 324.335 202.114 318.185 204.311C316.648 204.86 314.729 204.766 314.066 206.933C313.643 208.313 313.012 208.196 312.398 206.814C311.655 205.143 310.544 206.212 309.712 206.795C308.581 207.587 308.562 208.58 309.612 209.53C310.077 209.952 310.576 210.341 311.011 210.792C313.98 213.866 312.935 218.17 308.894 219.776C307.78 220.219 307.609 219.458 307.163 218.825C305.95 217.104 303.856 215.073 302.298 216.482C300.288 218.301 302.414 220.461 304.013 221.991C305.19 223.117 306.575 224.473 306.276 225.935C305.593 229.28 308.556 231.315 308.744 234.278C308.83 235.614 310.116 235.814 311.187 236.111C314.329 236.982 317.254 238.782 320.726 238.241C321.323 238.148 322.2 238.387 322.244 239.03C322.306 239.941 321.36 239.678 320.807 239.728C316.847 240.084 312.793 239.416 309.231 238.278C306.485 237.401 304.162 234.242 302.377 231.606C300.895 229.411 299.27 227.316 297.513 225.334C296.999 224.755 296.038 224.389 296.659 223.513C297.36 222.526 298.383 222.914 299.109 223.554C300.164 224.483 301.084 225.564 302.074 226.568C302.402 226.901 302.872 227.265 303.269 226.93C303.734 226.537 303.236 226.111 302.992 225.77C300.415 222.164 299.448 218.163 299.802 213.755C299.934 212.111 299.666 210.466 297.226 210.992C295.128 211.445 295.184 209.443 294.455 208.412C291.396 204.084 290.26 203.973 286.331 207.481C285.429 208.287 284.44 208.995 283.453 209.695C280.059 212.104 279.165 215.672 280.909 219.633C281.266 220.445 282.141 221.343 281.174 222.165C280.284 222.923 279.533 221.964 278.684 221.674C274.769 220.336 273.294 217.073 272.755 213.563C271.953 208.334 268.017 205.312 265.204 201.481C264.482 200.498 263.404 200.29 262.273 200.27C260.859 200.245 259.434 200.12 258.035 200.257C257.164 200.342 256.335 200.216 255.518 200.037C254.124 199.732 253.298 201.523 254.434 202.384C254.976 202.795 255.565 203.17 256.066 203.615C256.969 204.416 256.04 204.902 255.777 205.582C254.118 209.883 249.98 210.99 246.424 212.623C244.201 213.645 242.095 215.188 239.494 215.341C239.012 215.37 238.531 215.623 238.531 216.175C238.531 216.92 239.12 217.279 239.747 217.335C241.34 217.479 242.743 216.61 244.266 216.367C246.388 216.03 247.412 217.469 246.466 219.398C244.599 223.205 242.199 226.716 238.762 229.393C233.498 233.492 232.996 235.166 234.97 241.306C236.517 246.118 236.336 246.844 232.14 250.027C230.539 251.241 229.167 252.355 229.963 254.654C230.278 255.563 230.355 256.806 229.602 257.326C226.592 259.405 225.607 262.862 223.717 265.675C220.679 270.196 216.023 269.979 211.543 270.32C210.139 270.427 209.08 269.034 208.938 267.946C208.426 264.03 206.484 260.465 205.137 257.011C203.066 251.696 201.512 247.114 203.587 241.51C204.183 239.902 203.398 237.245 202.34 235.682C200.566 233.064 199.723 230.427 199.805 227.347C199.831 226.366 199.298 225.144 198.309 225.287C195.612 225.68 193.424 223.195 191.165 223.704C188.63 224.275 185.854 223.776 183.524 225.225C181.959 226.198 180.575 225.807 179.15 224.87C175.572 222.519 173.544 218.672 170.423 215.881C170.095 215.588 169.898 215.013 169.976 214.581C171.049 208.637 168.996 201.802 174.605 197.139C177.331 194.872 178.408 191.398 181.031 189.074C182.133 188.098 182.184 186.777 180.509 186.124C179.393 185.688 178.229 185.061 178.592 183.855C179.198 181.847 178.032 179.73 179.05 177.891C179.964 176.242 181.739 176.541 183.294 176.624C187.927 176.871 188.351 176.516 187.527 171.791C187.179 169.789 187.655 168.855 189.366 167.618C191.349 166.182 193.244 164.512 195.261 163.088C198.505 160.796 198.871 159.905 196.555 156.424C195.83 155.335 195.359 154.27 195.073 153.043C194.278 149.626 194.814 148.155 198.04 146.64C200.291 145.583 201.978 144.199 202.968 141.887C204.687 137.871 208 135.595 211.921 134.085C213.53 133.466 215.212 133.034 216.832 132.439C219.719 131.38 222.184 130.89 224.801 133.659C226.524 135.482 229.811 135.202 232.091 136.68C232.866 137.183 234.071 137.27 234.556 137.93C236.455 140.514 237.846 141.852 238.924 137.382C239.172 136.356 240.812 136.014 241.696 137.067C243.04 138.668 244.25 138.293 245.775 137.412C248.333 135.936 251.3 136.684 254.055 136.148C256.978 135.578 255.06 134.318 254.684 133.231L254.736 133.166C257.036 133.637 259.325 134.174 261.64 134.552C262.865 134.752 263.728 134.782 264.109 132.864C264.934 128.701 266.804 127.916 271.375 128.346C273.011 128.5 274.592 128.218 276.249 128.95C277.206 129.373 278.923 129.187 279.188 127.487C279.559 125.116 280.77 125.421 282.556 125.945C284.208 126.428 286.462 127.255 286.438 123.922C286.432 123.048 287.512 122.889 288.27 122.723C291.602 121.997 294.71 120.467 298.302 120.627C301.601 120.774 302.491 118.584 300.718 115.44C301.69 114.67 302.249 113.605 302.772 112.513ZM197.071 177.441C193.594 178.055 191.234 180.152 189.818 183.175C189.126 184.652 188.523 185.977 186.992 186.705C186.482 186.947 185.448 186.808 185.573 187.473C185.67 187.992 186.714 187.884 187.273 187.688C190.077 186.711 192.866 185.796 195.871 185.535C197.512 185.392 198.986 185.628 200.416 186.283C201.823 186.927 201.642 188.256 201.719 189.519C201.78 190.5 202.548 191.318 203.53 191.369C206.677 191.53 209.676 194.198 213.009 191.873C213.523 191.515 214.641 191.589 215.268 191.896C218.735 193.598 222.444 192.417 226.007 192.907C227.752 193.147 228.373 191.438 228.707 190.171C229.116 188.621 227.858 188.59 226.651 188.506C225.605 188.434 224.521 187.559 223.571 187.721C220.299 188.28 218.859 186.922 218.651 183.781C218.61 183.147 218.225 182.542 217.437 182.651C216.906 182.724 216.952 183.306 216.751 183.692C215.593 185.922 212.594 186.305 211.159 184.408C210.724 183.833 210.686 182.307 210.054 182.624C206.797 184.259 205.356 181.234 203.186 180.184C201.761 179.495 200.875 179.241 200.732 181.31C200.656 182.411 200.041 183.801 198.799 183.435C197.016 182.91 198.598 181.673 198.675 180.74C198.793 179.341 199.805 177.478 197.071 177.441ZM209.499 160.302C211.67 160.415 211.491 160.301 212.373 158.911C214.444 155.646 213.623 152.419 212.541 149.167C212.237 148.252 212.359 146.562 210.682 147.16C209.405 147.616 208.606 149.102 209.434 150.226C212.23 154.029 208.551 155.865 207.046 158.165C206.105 159.603 204.215 161.062 202.618 158.345C202.384 157.948 201.846 157.626 201.468 158.001C201.197 158.27 201.089 158.881 201.165 159.293C201.663 161.991 203.789 161.416 205.606 161.421C207.008 161.425 207.896 159.619 209.499 160.302ZM235.331 179.287C234.669 176.705 231.006 176.928 230.465 173.966C230.341 173.29 229.418 175.003 228.761 175.5C227.72 176.287 226.669 176.522 226.025 175.228C225.498 174.17 224.93 173.534 224.013 174.5C222.965 175.605 221.723 176.745 221.925 178.529C222.053 179.662 222.925 180.309 223.883 180.101C226.889 179.446 229.673 179.866 232.512 180.984C233.701 181.451 235.003 180.89 235.331 179.287ZM232.368 203.795C231.384 204.008 231.346 204.723 231.294 205.505C231.143 207.784 232.782 209.11 233.987 210.662C234.534 211.366 235.096 212.625 236 212.24C237.305 211.684 236.483 210.402 236.236 209.435C235.768 207.598 234.413 206.254 233.464 204.685C233.247 204.324 232.776 204.116 232.368 203.795ZM-2.82739 163.494C1.10151 161.084 5.07964 158.78 9.47729 157.296C10.0382 157.107 10.8179 156.759 10.757 156.081C10.6867 155.296 9.73901 155.637 9.24214 155.345C7.21792 154.155 5.11948 153.068 3.20073 151.725C0.83042 150.066 0.940576 148.692 3.3812 147.205C3.90776 146.884 4.52729 146.718 5.10073 146.471C5.75776 146.187 7.09526 146.383 6.83276 145.413C6.60229 144.562 5.45933 145.366 4.72417 145.325C4.1062 145.291 3.44214 145.326 2.88511 145.108C1.81089 144.687 0.863232 143.887 1.05542 142.665C1.29995 141.109 2.6812 140.989 3.97573 140.974C4.55229 140.967 5.37886 141.643 5.63511 140.921C5.87339 140.251 4.88589 140.144 4.38823 139.821C0.670264 137.407 0.684325 136.816 4.42964 134.642C5.37729 134.092 6.26479 133.416 7.25932 132.977C10.0867 131.727 12.7437 130.97 16.0804 132.143C19.6968 133.415 23.764 133.341 27.5789 134.127C32.3117 135.103 36.8054 135.126 41.632 133.899C46.2679 132.721 51.2375 133.598 55.8875 135.233C56.446 135.429 57.1624 135.923 57.5968 135.274C57.9898 134.687 57.5101 134.051 56.9843 133.697C56.1992 133.17 55.4812 132.727 55.282 131.633C55.0562 130.394 54.3234 130.117 53.3679 131.145C52.2351 132.362 50.8718 132.341 49.4812 131.735C48.0578 131.116 46.9695 130.206 47.9546 128.489C48.5062 127.527 49.1101 126.649 49.0437 125.462C48.95 123.798 50.4054 123.431 51.2351 123.964C53.9046 125.677 57.2515 124.727 59.9632 126.823C62.1929 128.546 65.2718 129.052 68.2132 127.259C69.9109 126.224 71.7023 125.995 71.3312 129.048C71.1874 130.233 71.5851 131.527 72.4632 131.991C74.8742 133.267 76.8968 134.251 73.4648 136.747C72.7453 137.27 73.2804 138.256 74.1757 138.51C75.2429 138.812 76.7734 139.023 76.896 137.662C77.0398 136.067 77.5929 135.202 78.8374 134.282C80.8679 132.782 80.5265 131.866 77.9187 131.839C75.7999 131.816 75.0742 129.621 73.4796 128.747C75.3367 128.412 76.0664 126.185 78.0687 126.048C79.1585 125.973 80.2382 125.737 81.3203 125.559C82.864 125.305 83.921 124.536 84.1484 122.878C84.264 122.037 84.2031 121.262 83.2101 121.065C81.7937 120.784 80.5484 119.941 79.2703 121.992C77.4656 124.887 73.8898 122.464 71.3906 123.79L70.7429 122.075C71.1343 121.659 71.1781 121.245 70.7414 120.83C71.0625 119.162 69.8523 117.659 70.6609 115.79C72.0171 112.654 72.3578 112.334 75.0921 114.066C75.9078 114.584 76.9515 115.166 76.6328 116.17C76.2054 117.512 75.0687 116.375 74.2562 116.43C73.2476 116.498 72.2765 116.588 72.2656 117.854C72.2546 119.099 73.1742 119.32 74.2148 119.314C75.3109 119.308 76.4101 119.416 77.5023 119.357C79.5171 119.249 80.6945 118.566 79.075 116.479C78.3703 115.57 77.4656 114.567 78.6273 113.65C79.8367 112.695 80.6757 114.083 81.2617 114.822C81.8468 115.56 83.8992 115.559 82.6843 117.588C82.3164 118.203 84.264 118.623 85.2585 118.868C85.7343 118.985 86.2023 118.695 86.321 118.164C86.5617 117.087 86.0484 116.369 85.1281 115.88C84.9827 115.806 84.843 115.721 84.7101 115.626C78.8976 111.354 78.9671 110.014 85.2085 106.341C86.2883 105.703 87.4583 105.233 88.6789 104.947C95.0679 103.423 101.616 102.984 108.1 102.225C110.81 101.908 113.681 102.836 116.461 103.309C117.517 103.488 119.363 103.924 119.389 104.336C119.465 105.533 117.802 105.489 117.059 106.253C116.637 106.687 115.851 106.997 116.27 107.727C116.749 108.559 117.809 108.598 118.267 107.984C120.994 104.33 124.798 105.255 128.54 105.022C131.584 104.833 134.659 104.432 137.788 103.355C141.234 102.17 145.343 101.826 149.214 101.516C149.99 101.454 150.987 101.895 151.53 101.549C156.212 98.5711 160.128 103.003 164.5 102.792C165.021 102.767 165.423 103.208 165.255 103.73C165.13 104.121 164.726 104.682 164.408 104.708C162.223 104.887 160.028 104.934 157.837 105.052C157.386 105.076 156.941 105.224 156.492 105.316C156.758 106.082 157.439 105.82 157.934 105.82C162.612 105.809 167.283 106.47 171.977 105.907C173.116 105.77 174.769 105.608 174.993 107.323C175.169 108.672 173.735 108.927 172.802 109.439C169.449 111.28 165.71 112.898 168.279 117.922C168.6 118.549 167.766 119.129 167.78 119.616C167.907 123.948 164.12 127.334 164.929 131.851C165.156 133.121 164.359 134.446 163.067 134.845C160.246 135.715 158.052 138.202 154.83 138.001C154.525 137.982 154.148 138.003 153.912 138.165C149.299 141.32 143.157 142.816 141.612 149.323C141.026 151.795 139.579 152.103 137.372 151.472C133.876 150.472 132.147 147.812 130.391 144.94C128.571 141.964 127.782 139.27 130.569 136.476C131.004 136.04 130.973 135.493 130.365 134.923C128.975 133.623 126.519 129.364 126.15 127.948C125.019 123.602 120.693 120.055 116.406 121.2C111.669 122.466 109.965 119.312 107.586 116.817C106.619 115.803 107.466 115.094 108.341 114.657C109.591 114.031 111.065 114.035 112.277 113.17C113.259 112.47 113.325 111.871 112.824 110.84C112.296 109.752 111.649 110.134 110.934 110.421C106.677 112.126 102.898 114.214 101.501 119.166C101.033 120.827 99.7218 122.181 99.2921 124.083C98.9226 125.719 96.682 125.346 95.171 125.591C94.6203 125.681 93.6664 125.16 93.6179 125.923C93.582 126.488 94.7265 126.218 95.2171 126.5C98.6124 128.448 102.823 127.262 106.212 129.716C108.911 131.67 112.091 132.695 113.404 136.368C114.044 138.161 116.528 138.809 118.398 139.595C119.273 139.962 120.541 140.246 119.586 141.377C118.838 142.262 118.484 144.384 116.484 143.33C115.81 142.974 115.309 142.298 114.714 141.786C114.369 141.488 113.901 141.091 113.517 141.427C113.094 141.797 113.506 142.258 113.801 142.593C114.215 143.065 114.721 143.464 115.088 143.966C115.759 144.884 117.515 145.741 116.141 147.005C115.104 147.959 113.798 149.494 112.043 148.67C108.584 147.049 105.486 144.438 101.249 145.191C100.848 145.262 100.453 144.73 100.446 144.219C100.437 143.646 100.845 143.412 101.355 143.371C102.136 143.309 102.962 143.423 103.691 143.205C105.694 142.609 106.925 140.133 106.212 138.348C105.383 136.276 100.361 133.866 97.9835 134.138C96.2984 134.332 97.3984 134.995 97.2843 135.712C96.9632 137.73 98.5718 140.93 94.2749 141.102C92.7492 141.164 93.957 142.421 94.5718 142.991C95.689 144.026 98.3023 144.189 97.996 145.697C97.7046 147.134 95.157 145.045 93.8656 146.509C93.3281 147.118 92.3257 147.181 91.6835 146.657C89.1632 144.601 87.6414 146.735 86.032 148.01C81.2445 151.804 81.4421 153.901 86.9999 156.579C88.257 157.184 89.4156 158.095 90.7609 158.423C94.2656 159.277 97.2515 160.583 98.132 164.592C98.2874 165.298 99.1593 166.578 100.213 165.589C100.793 165.045 100.797 164.137 100.349 163.48C98.9765 161.464 99.2359 160.127 101.591 159.096C102.641 158.637 102.322 157.427 101.882 156.587C101.1 155.095 101.4 153.52 101.328 151.971C101.145 147.998 103.377 146.545 106.954 148.432C108.314 149.15 109.879 149.992 110.641 151.218C111.919 153.275 112.923 154.341 115.397 152.808C117.005 151.811 118.148 153.341 118.668 154.587C119.805 157.311 121.884 159.066 123.999 160.946C125.61 162.378 128.159 163.664 126.642 166.729C126.152 167.719 127.259 167.937 127.866 168.347C128.921 169.059 129.908 169.847 130.142 171.205C130.25 171.829 129.846 172.93 129.769 172.87C128.043 171.534 125.981 172.806 124.283 172.125C123.137 171.666 123.073 170.452 123.502 169.267C124.161 167.448 123.207 167.495 121.851 167.83C120.949 168.054 119.955 168.197 119.05 168.06C115.786 167.569 115.969 168.678 116.962 171.281C117.842 173.591 118.744 173.411 120.386 172.484C121.154 172.05 121.962 172.148 122.322 173.048C122.663 173.904 122.13 174.905 121.478 175.01C119.03 175.407 117.032 178.356 114.124 176.283C113.249 175.659 111.779 176.133 111.629 176.829C111.035 179.591 108.707 180.319 106.787 181.587C106.424 181.826 106.159 182.316 106.001 182.745C104.587 186.556 102.568 189.818 99.2195 192.38C97.5179 193.681 97.4078 195.945 99.1538 197.816C100.011 198.734 100.253 200.001 99.0984 200.662C97.9546 201.316 97.7937 199.674 97.107 199.166C96.3749 198.625 95.7562 197.839 95.2921 197.041C93.9242 194.691 91.8234 194.438 89.5859 195.155C88.2164 195.595 86.8937 195.927 85.4664 195.927C82.657 195.929 80.1492 195.79 80.8007 200.187C81.0437 201.827 78.6984 203.669 80.8437 205.762C82.4062 207.287 83.8179 208.01 85.789 206.78C86.4539 206.365 87.0757 205.878 87.7484 205.476C88.7281 204.889 89.9468 204.439 90.8812 205.018C92.3148 205.907 90.9109 207.025 90.532 207.796C89.3132 210.281 89.5531 211.569 92.6726 211.543C94.3367 211.53 95.2656 212.642 95.3039 214.278C95.3398 215.811 94.6898 217.738 96.6499 218.33C98.6945 218.948 101.29 219.157 102.885 217.882C106.319 215.137 109.703 215.719 113.395 216.876C114.388 217.187 115.419 217.334 116.458 217.402C122.447 217.797 125.743 223.453 131.241 224.789C133.116 231.278 139.817 230.275 144.131 232.97C145.249 233.668 146.685 234.027 147.894 234.773C150.226 236.213 150.869 238.062 149.1 240.234C147.33 242.404 146.873 244.948 146.119 247.519C144.881 251.745 144.119 256.626 138.044 257.01C136.406 257.114 135.555 258.655 135.071 260.299C133.127 266.899 132.425 267.595 125.294 270.35C124.741 270.564 124.581 270.783 124.762 271.291C125.883 274.427 123.735 275.28 121.462 275.493C119.338 275.692 119.23 277.459 118.387 278.609C116.871 280.677 116.518 283.493 114.259 285.135C114.118 285.237 114.276 286.146 114.545 286.353C116.006 287.474 115.359 288.197 114.43 289.364C111.348 293.239 111.404 293.452 114.171 297.483C114.613 298.127 115.468 298.606 114.08 299.073C110.327 300.336 106.803 298.591 105.381 294.854C104.272 291.94 104.206 288.755 104.981 286.031C106.599 280.342 106.363 274.43 107.738 268.662C108.791 264.245 109.64 259.332 109.71 254.524C109.755 251.516 108.555 249.199 106.172 247.791C103.534 246.231 102.056 244.041 101.062 241.311C100.798 240.586 100.324 239.939 99.9906 239.236C99.1101 237.38 95.6117 236.767 97.6195 233.482C98.7054 231.705 98.2281 229.12 100.229 227.652C101.517 226.706 101.583 225.331 101.657 223.87C101.737 222.308 101.36 221.664 99.6421 221.497C96.5351 221.195 93.2781 220.86 92.5124 216.801C92.346 215.919 91.2898 215.822 90.5906 215.68C86.9812 214.947 84.1343 212.551 79.9624 212.398C76.4414 212.27 71.696 210.484 69.9093 205.794C69.1203 203.723 68.2374 202.217 64.9726 202.878C62.3023 203.419 60.5695 200.06 59.6632 197.627C58.25 193.834 56.2351 190.921 52.9718 188.309C49.4445 185.487 48.4757 180.849 48.5648 176.342C48.6257 173.262 48.8593 170.348 45.5468 168.672C44.8414 168.315 44.5523 167.741 44.4546 166.819C44.0664 163.162 43.7664 162.958 39.8835 162.649C38.6343 162.55 38.6835 161.489 38.2242 160.716C35.3999 155.964 31.8132 152.446 25.8203 151.798C23.6484 151.563 22.3148 152.684 20.5812 153.019C18.7414 153.374 16.5515 152.516 17.7609 155.936C18.1179 156.947 16.5343 158.477 15.239 158.059C12.871 157.292 11.7429 158.561 10.5289 160.066C10.2398 160.424 9.87104 160.977 9.52182 160.99C5.2312 161.153 1.68433 163.998 -2.55239 164.309L-2.82739 163.494ZM86.3671 128.419C85.5976 128.548 84.8289 128.7 84.2953 129.34C83.6867 130.07 83.9156 130.835 84.4242 131.446C86.071 133.423 87.2953 135.873 90.2085 136.462C90.7742 136.577 90.0617 138.298 91.2812 137.997C91.8765 137.851 92.4898 136.968 92.7054 136.294C92.9835 135.424 92.1921 134.818 91.4546 134.636C88.9273 134.012 88.0351 132.223 87.764 129.882C87.671 129.083 87.4273 128.339 86.3671 128.419Z" fill="#C4C2C2"/>
<path d="M348.909 244.696C348.867 242.391 348.954 240.418 346.479 239.82C346.177 239.748 345.627 239.584 345.635 239.513C346.184 234.747 341.983 235.516 339.545 234.224C339.005 233.938 338.552 233.452 338.128 232.995C337.37 232.177 336.488 231.173 337.363 230.121C338.389 228.888 340.029 229.299 340.578 230.408C341.727 232.728 343.152 232.039 345.124 231.865C349.491 231.478 352.993 233.816 355.373 237.262C356.297 238.6 358.893 240.099 358.088 240.987C356.806 242.401 355.157 240.24 353.701 239.505C352.529 238.915 351.508 239.209 350.734 240.105C349.871 241.107 350.445 242.099 350.934 243.141C353.319 248.214 356.827 252.522 360.176 256.941C363.293 261.053 363.468 263.324 360.968 267.805C360.506 268.633 360.033 269.455 359.64 270.317C356.622 276.94 351.62 277.756 346.489 272.897C344.062 270.598 341.138 268.797 338.327 266.941C336.573 265.783 334.777 266.338 333.007 267.323C330.13 268.924 327.115 270.062 323.746 270.395C320.064 270.759 320.021 270.968 319.503 267.242C319.058 264.038 317.142 261.242 317.586 257.711C317.94 254.891 319.002 253.491 321.609 252.751C323.763 252.139 325.783 251.747 326.827 248.82C327.405 247.198 330.459 245.57 333 245.689C334.48 245.759 335.309 245.53 336.049 244.27C337.211 242.295 339.209 242.515 341.101 242.657C342.332 242.749 343.365 243.312 343.062 244.708C342.378 247.855 344.403 248.906 346.716 248.78C349.373 248.634 348.657 246.062 348.909 244.696ZM205.984 111.027C204.471 111.401 202.411 109.785 201.45 112.106C200.463 114.49 203.209 115.112 203.876 116.742C204.248 117.65 205.047 118.162 205.785 118.748C207.116 119.806 208.527 119.969 209.387 118.453C210.712 116.117 212.151 116.077 214.086 117.582C214.588 117.972 215.288 117.888 215.819 117.449C216.215 117.122 216.432 116.521 216.037 116.226C211.87 113.116 215.598 113.644 217.388 113.157C218.113 112.959 218.773 112.47 219.416 112.043C219.779 111.803 220.284 111.431 220.301 111.099C220.325 110.601 219.704 110.53 219.27 110.502C217.088 110.358 215.041 109.293 212.57 109.648C210.336 109.179 208.243 110.47 205.984 111.027ZM67.4969 119.298C66.7664 118.48 65.6398 118.287 65.1906 119.387C63.4391 123.678 61.3063 120.427 59.9766 119.409C56.4305 116.695 54.9039 116.549 51.8938 119.463C50.5891 120.727 50.507 121.519 52.4602 121.909C55.0633 122.43 57.5102 123.178 59.8648 124.578C62.7172 126.274 68.4578 124.709 70.7422 122.075C71.1336 121.659 71.1773 121.245 70.7406 120.83C69.3633 120.944 68.3859 120.292 67.4969 119.298ZM312.249 228.053C312.08 228.173 312.051 228.66 312.127 228.929C312.731 231.055 313.372 233.189 315.91 233.802C318.105 234.333 319.711 233.737 321.106 231.757C322.854 229.276 322.059 226.33 323.059 223.728C323.429 222.767 322.197 222.258 320.577 222.247C318.057 223.992 315.138 226.002 312.249 228.053ZM244.997 243.795C243.041 245.17 240.33 246.245 239.326 248.335C238.169 250.744 237.752 253.658 237.919 256.477C237.977 257.467 238.499 258.258 239.572 258.448C240.87 258.68 242.413 258.595 242.784 257.263C243.813 253.576 245.806 250.193 246.314 246.582C245.877 245.355 246.286 242.889 244.997 243.795ZM254.738 133.174C251.505 129.584 251.509 128.827 255.177 125.782C257.341 123.986 259.702 122.491 262.516 121.827C263.717 121.544 264.891 121.086 266.017 120.575C266.317 120.439 266.56 119.807 266.541 119.418C266.502 118.681 265.891 118.299 265.225 118.462C259.165 119.945 253.101 121.434 249.175 126.965C247.605 129.176 248.145 131.58 250.547 132.776C251.863 133.431 253.291 133.222 254.686 133.238L254.738 133.174ZM382.353 284.623C383.484 281.896 385.542 280.187 387.831 278.487C390.609 276.423 390.41 274.933 387.544 272.662C386.938 272.182 386.331 271.395 385.548 271.753C384.602 272.185 385.204 273.091 385.329 273.81C385.689 275.89 385.41 277.312 383.127 278.519C381.187 279.545 379.807 281.728 378.351 283.537C377.204 284.962 377.823 286.47 379.608 286.573C380.832 286.589 381.885 285.752 382.353 284.623ZM348.877 181.05C348.247 180.687 347.585 180.815 347.255 181.408C345.258 185.006 341.925 186.764 338.296 188.245C336.813 188.851 335.779 190.099 335.855 191.898C335.885 192.593 336.272 193.206 336.999 192.883C340.316 191.409 343.739 190.085 346.83 188.22C348.69 187.098 349.319 184.736 349.75 182.903C349.8 181.866 349.446 181.377 348.877 181.05ZM298.307 108.495C296.059 107.027 294.672 108.424 293.831 110.162C292.956 111.97 293.595 113.566 295.715 114.173C297.37 114.648 299.051 115.027 300.72 115.449C301.69 114.67 302.249 113.605 302.772 112.514C301.74 110.666 300.006 109.603 298.307 108.495ZM344.404 121.792C343.478 123.416 345.455 123.664 346.155 124.523C346.449 124.884 346.78 125.22 347.03 125.609C347.734 126.698 348.581 127.841 349.985 127.381C351.721 126.813 349.575 125.524 350.252 124.641C350.625 124.155 350.94 123.621 351.336 123.156C352.273 122.055 351.653 121.453 350.623 121.17C349.737 120.926 348.784 120.923 348.167 120.85C346.635 120.981 345.083 120.601 344.404 121.792ZM326.764 216.981C328.284 218.294 329.664 217.25 330.433 216.322C331.264 215.318 330.347 214.152 329.13 213.911C326.929 213.474 326.796 212.398 327.56 210.555C327.884 209.773 326.958 209.102 326.216 208.901C325.226 208.632 324.871 209.527 324.624 210.248C324.426 210.827 324.448 211.484 324.373 212.105C324.219 214.205 325.263 215.684 326.764 216.981ZM323.065 232.127C323.18 233.521 323.378 235.516 324.892 235.863C325.709 236.051 327.799 235.313 327.662 233.476C327.562 232.13 327.245 230.642 325.362 230.445C324.24 230.499 322.963 230.881 323.065 232.127Z" fill="#D6A217"/>
<path d="M210.623 201.834C172.529 81.6808 50.9278 111.716 67.2032 183.928" stroke="#D6A217" stroke-width="6"/>
<ellipse cx="69.5248" cy="189.06" rx="9.21277" ry="9.87338" fill="#D6A217"/>
<ellipse cx="210.787" cy="207.161" rx="9.21277" ry="9.87338" fill="#D6A217"/>
<path d="M339.067 222.834C302.776 102.681 186.931 132.716 202.436 204.928" stroke="#D6A217" stroke-width="6"/>
<ellipse cx="204.648" cy="210.06" rx="8.77666" ry="9.87338" fill="#D6A217"/>
<ellipse cx="339.223" cy="228.161" rx="8.77666" ry="9.87338" fill="#D6A217"/>
<path d="M271.067 141.834C234.776 21.6808 118.931 51.7159 134.436 123.928" stroke="#D6A217" stroke-width="6"/>
<ellipse cx="136.648" cy="129.06" rx="8.77666" ry="9.87338" fill="#D6A217"/>
<ellipse cx="271.223" cy="147.161" rx="8.77666" ry="9.87338" fill="#D6A217"/>
</g>
<defs>
<clipPath id="clip0_6_126">
<rect width="400" height="400" fill="white"/>
</clipPath>
</defs>
</svg>
