<svg width="38" height="38" viewBox="0 0 38 38" fill="none" xmlns="http://www.w3.org/2000/svg">
<path d="M19 2.375C12.4443 2.375 7.125 7.16285 7.125 13.0625C7.125 22.5625 19 35.625 19 35.625C19 35.625 30.875 22.5625 30.875 13.0625C30.875 7.16285 25.5557 2.375 19 2.375ZM19 19C18.0605 19 17.1422 18.7214 16.361 18.1995C15.5799 17.6775 14.9711 16.9357 14.6116 16.0677C14.2521 15.1998 14.158 14.2447 14.3413 13.3233C14.5245 12.4019 14.9769 11.5555 15.6412 10.8912C16.3055 10.2269 17.1519 9.77455 18.0733 9.59127C18.9947 9.40799 19.9498 9.50206 20.8177 9.86157C21.6857 10.2211 22.4275 10.8299 22.9495 11.611C23.4714 12.3922 23.75 13.3105 23.75 14.25C23.7486 15.5094 23.2477 16.7167 22.3572 17.6072C21.4667 18.4977 20.2594 18.9986 19 19Z" fill="#3D5654"/>
</svg>
