<svg width="50" height="50" viewBox="0 0 50 50" fill="none" xmlns="http://www.w3.org/2000/svg">
<path d="M14.2708 35.7292L7.60417 32.0833L9.79167 29.8958L15 30.625L23.125 22.5L6.875 13.6458L9.79167 10.7292L29.6875 15.8333L37.8646 7.76042C38.4549 7.17014 39.1931 6.875 40.0792 6.875C40.9653 6.875 41.7028 7.17014 42.2917 7.76042C42.8819 8.35069 43.1771 9.08889 43.1771 9.975C43.1771 10.8611 42.8819 11.5986 42.2917 12.1875L34.1667 20.3125L39.2708 40.2083L36.3542 43.125L27.5 26.875L19.375 35L20.1042 40.2083L17.9167 42.3958L14.2708 35.7292Z" fill="#D6A217"/>
</svg>
