<svg width="50" height="50" viewBox="0 0 50 50" fill="none" xmlns="http://www.w3.org/2000/svg">
<path d="M28.1249 17.0479V10.0354C28.1249 9.53956 28.2874 9.13192 28.6124 8.81248C28.9374 8.49304 29.3402 8.33331 29.8208 8.33331H39.9874C40.468 8.33331 40.868 8.49304 41.1874 8.81248C41.5069 9.13192 41.6666 9.53956 41.6666 10.0354V17.0479C41.6666 17.5437 41.5041 17.9514 41.1791 18.2708C40.8541 18.5903 40.4513 18.75 39.9708 18.75H29.8041C29.3235 18.75 28.9235 18.5903 28.6041 18.2708C28.2846 17.9514 28.1249 17.5437 28.1249 17.0479ZM8.33325 23.3333V9.99998C8.33325 9.52776 8.49575 9.13192 8.82075 8.81248C9.14575 8.49304 9.54853 8.33331 10.0291 8.33331H20.1958C20.6763 8.33331 21.0763 8.49304 21.3958 8.81248C21.7152 9.13192 21.8749 9.52776 21.8749 9.99998V23.3333C21.8749 23.8055 21.7124 24.2014 21.3874 24.5208C21.0624 24.8403 20.6596 25 20.1791 25H10.0124C9.53186 25 9.13186 24.8403 8.81242 24.5208C8.49297 24.2014 8.33325 23.8055 8.33325 23.3333ZM28.1249 40V26.6666C28.1249 26.1944 28.2874 25.7986 28.6124 25.4791C28.9374 25.1597 29.3402 25 29.8208 25H39.9874C40.468 25 40.868 25.1597 41.1874 25.4791C41.5069 25.7986 41.6666 26.1944 41.6666 26.6666V40C41.6666 40.4722 41.5041 40.868 41.1791 41.1875C40.8541 41.5069 40.4513 41.6666 39.9708 41.6666H29.8041C29.3235 41.6666 28.9235 41.5069 28.6041 41.1875C28.2846 40.868 28.1249 40.4722 28.1249 40ZM8.33325 39.9646V32.9521C8.33325 32.4562 8.49575 32.0486 8.82075 31.7291C9.14575 31.4097 9.54853 31.25 10.0291 31.25H20.1958C20.6763 31.25 21.0763 31.4097 21.3958 31.7291C21.7152 32.0486 21.8749 32.4562 21.8749 32.9521V39.9646C21.8749 40.4604 21.7124 40.868 21.3874 41.1875C21.0624 41.5069 20.6596 41.6666 20.1791 41.6666H10.0124C9.53186 41.6666 9.13186 41.5069 8.81242 41.1875C8.49297 40.868 8.33325 40.4604 8.33325 39.9646ZM10.4166 22.9166H19.7916V10.4166H10.4166V22.9166ZM30.2083 39.5833H39.5833V27.0833H30.2083V39.5833ZM30.2083 16.6666H39.5833V10.4166H30.2083V16.6666ZM10.4166 39.5833H19.7916V33.3333H10.4166V39.5833Z" fill="#D6A217"/>
</svg>
