<svg width="45" height="45" viewBox="0 0 45 45" fill="none" xmlns="http://www.w3.org/2000/svg">
<g clip-path="url(#clip0_16_204)">
<path d="M15.3882 22.0444C15.5625 22.2185 15.7008 22.4253 15.7952 22.6529C15.8895 22.8805 15.9381 23.1245 15.9381 23.3709C15.9381 23.6173 15.8895 23.8613 15.7952 24.0889C15.7008 24.3166 15.5625 24.5233 15.3882 24.6975L11.9625 28.125H30C30.4973 28.125 30.9742 28.3225 31.3259 28.6742C31.6775 29.0258 31.875 29.5027 31.875 30C31.875 30.4973 31.6775 30.9742 31.3259 31.3258C30.9742 31.6774 30.4973 31.875 30 31.875H11.9625L15.39 35.3025C15.5642 35.4766 15.7025 35.6833 15.7968 35.9108C15.8911 36.1383 15.9397 36.3821 15.9398 36.6284C15.9399 36.8747 15.8915 37.1185 15.7973 37.3461C15.7031 37.5737 15.5651 37.7805 15.391 37.9547C15.2169 38.1289 15.0102 38.2671 14.7827 38.3614C14.5552 38.4557 14.3114 38.5043 14.0651 38.5044C13.8188 38.5045 13.5749 38.4561 13.3473 38.3619C13.1198 38.2678 12.913 38.1297 12.7388 37.9556L6.10879 31.3256C5.75728 30.974 5.55981 30.4972 5.55981 30C5.55981 29.5028 5.75728 29.026 6.10879 28.6744L12.7388 22.0444C13.0904 21.6928 13.5672 21.4954 14.0644 21.4954C14.5616 21.4954 15.0384 21.6928 15.39 22.0444H15.3882ZM29.6119 7.04435C29.9348 6.72152 30.3643 6.52759 30.82 6.49894C31.2757 6.47028 31.7262 6.60888 32.0869 6.88873L32.2632 7.04435L38.8932 13.6744C39.216 13.9972 39.4099 14.4268 39.4386 14.8825C39.4672 15.3381 39.3286 15.7886 39.0488 16.1494L38.8932 16.3256L32.2632 22.9537C31.9257 23.29 31.473 23.4852 30.9968 23.4998C30.5207 23.5143 30.0568 23.3471 29.6995 23.032C29.3422 22.7169 29.1182 22.2777 29.073 21.8035C29.0279 21.3292 29.1649 20.8556 29.4563 20.4787L29.6119 20.3025L33.0375 16.875H15C14.5221 16.8744 14.0625 16.6915 13.715 16.3634C13.3675 16.0353 13.1583 15.5869 13.1303 15.1099C13.1023 14.6328 13.2576 14.163 13.5643 13.7965C13.871 13.4301 14.3061 13.1945 14.7807 13.1381L15 13.125H33.0394L29.6119 9.69373C29.2604 9.34211 29.0629 8.86529 29.0629 8.3681C29.0629 7.87092 29.2604 7.39597 29.6119 7.04435Z" fill="white"/>
</g>
<defs>
<clipPath id="clip0_16_204">
<rect width="45" height="45" fill="white"/>
</clipPath>
</defs>
</svg>
