<svg width="60" height="60" viewBox="0 0 60 60" fill="none" xmlns="http://www.w3.org/2000/svg">
<g clip-path="url(#clip0_16_220)">
<path d="M46.5825 32.8575C46.61 33.565 46.6025 34.2675 46.5675 34.9575C39.6875 35.2325 33.1625 35.6425 33.1625 36.1125C33.1625 36.57 39.5425 36.98 46.3375 37.2475C46.233 38.0268 46.0776 38.7984 45.8725 39.5575C39.1725 39.8325 32.9475 40.24 32.9475 40.6975C32.9475 41.1325 38.7625 41.5225 45.19 41.7975C44.9 42.6225 44.565 43.415 44.2 44.1825C38.675 44.445 34.1 44.8 34.1 45.1875C34.1 45.55 38.0875 45.885 43.1225 46.1375C42.842 46.5935 42.5468 47.0404 42.2375 47.4775C41.9025 47.9375 41.5525 48.4 41.1825 48.8525C38.0325 49.0875 35.875 49.36 35.875 49.6525C35.875 49.9025 37.415 50.135 39.795 50.3425C38.4073 51.716 36.8476 52.9042 35.155 53.8775C35.155 53.8775 33.02 52.045 31.2625 49.8975C29.6875 47.9875 26.3625 42.9475 25.585 41.825C24.8 40.6975 24.285 40.3625 23.3675 40.6925C22.14 41.125 20.71 41.3425 20.2725 41.3425C19.8325 41.3425 19.595 41.175 20.335 40.8825C21.0625 40.5875 23.96 39.22 25.3925 36.385C26.9925 33.2 25.585 28.8025 25.585 28.8025C25.045 31.1525 23.8225 32.0275 23.8225 32.0275C24.22 29.8475 23.7875 27.8675 22.7075 26.4775L22.1075 29.245C22.1075 29.245 21.7325 29.22 20.795 30.005C19.87 30.79 19.61 31.93 19.61 31.93C20.35 32.23 21.22 31.49 21.22 31.49C20.105 35.7025 18.4875 39.125 17.315 40.94C16.135 42.75 15.175 43.435 13.99 43.915C13 44.3125 12.6675 43.845 12.6675 43.845C11.8711 43.1591 11.1366 42.4045 10.4725 41.59C10.4725 41.59 10.42 41.49 10.5975 41.5C11.0875 41.5075 11.9475 40.6825 12.1375 40.3325C12.3475 39.9375 12.3325 39.64 12.22 39.6175C12.12 39.6 11.9325 39.915 10.99 40.5C10.065 41.09 9.6475 40.685 9.3275 40.35C9.095 40.1 9.3275 39.77 9.47 39.57C9.62 39.385 14.5325 30.23 27.525 20.6C44.58 7.98749 55.4525 4.58749 56.075 4.33749C56.49 4.17499 57.16 3.96249 57.315 4.11749C57.4775 4.29499 57.565 4.43749 57.535 4.64499C57.515 4.84999 57.41 4.95249 56.6275 5.29999C50.0775 8.18499 42.4425 12.9825 38.1075 15.7775C32.7675 18.3775 27.6775 22.09 27.495 22.18C27.085 22.4325 27.38 22.805 27.64 22.65C36.64 16.6575 47.205 12.575 58.885 9.22999C59.435 9.07499 59.74 9.07499 59.84 9.19499C59.934 9.33382 59.9892 9.4952 60 9.66249C60.015 9.87249 59.84 9.98749 59.355 10.1775C46.8275 14.8375 37.58 19.1575 31.6275 23.1625C31.6275 23.1625 31.015 23.5275 31.0075 23.9575C31.0075 24.12 31.3375 24.14 31.3375 24.14C34.3125 24.1925 38.2975 24.37 40.1825 24.48C40.1825 24.48 39.9225 25.44 38.1075 26.21C36.7075 26.81 35.415 26.715 34.1275 26.72C33.835 26.72 33.6025 27 33.8225 27.315C33.94 27.465 36.6725 31.855 46.5825 32.8575ZM23.8575 42.09C22.51 42.5725 20.915 42.83 20.265 42.83C19.1375 42.83 17.2925 43.455 16.64 44.02C19.4844 43.9769 22.3286 43.9194 25.1725 43.8475C24.9022 43.4555 24.6339 43.0621 24.3675 42.6675C24.2312 42.4561 24.0746 42.2585 23.9 42.0775C23.875 42.085 23.8775 42.0775 23.8575 42.09ZM7.3 21.705C10.875 21.705 17.47 21.6175 23.9875 21.4675C24.73 20.87 25.5025 20.275 26.3075 19.6725C19.0825 19.49 11.3 19.375 7.3 19.375C5.61 19.375 4.235 19.9 4.235 20.54C4.235 21.1825 5.61 21.7025 7.3 21.7025M8.3175 16.085C8.3175 16.59 9.4 17 10.73 17C14.8075 17 23.8975 16.8525 30.525 16.625C31.02 16.28 31.5125 15.9275 32.0025 15.5975C24.9142 15.3485 17.8226 15.206 10.73 15.17C9.4 15.17 8.3175 15.58 8.3175 16.085ZM37.7775 28.7575C38.5025 29.19 39.395 29.6275 40.49 30.0275C43.9575 29.8525 46.19 29.66 46.19 29.4525C46.19 29.2025 42.755 28.965 37.7775 28.7575ZM5.2325 26.3025C8.2675 26.3025 13.2225 26.245 18.6325 26.1425C19.405 25.3975 20.2375 24.6425 21.11 23.8775C15.8182 23.7615 10.5255 23.6931 5.2325 23.6725C3.3275 23.6725 1.7875 24.2625 1.7875 24.9875C1.7875 25.7125 3.3275 26.3025 5.2325 26.3025ZM39.7325 20.1825C39.2245 20.4451 38.7195 20.7135 38.2175 20.9875C40.775 20.85 42.3925 20.7 42.3925 20.54C42.3925 20.415 41.3875 20.2975 39.735 20.1825M16.1525 13.1825C20.0425 13.1825 31.8675 12.8925 31.8675 12.5375C31.8675 12.175 20.0375 11.885 16.1525 11.885C15.4 11.885 14.785 12.175 14.785 12.535C14.785 12.8925 15.4 13.185 16.1525 13.185M41.6125 24.875C41.5581 25.0665 41.4782 25.2498 41.375 25.42C43.53 25.285 44.8525 25.1375 44.8525 24.9875C44.8525 24.8425 43.655 24.705 41.6925 24.575L41.6125 24.875ZM26.9175 46.4225C19.5375 46.23 11.4175 46.1125 7.3025 46.1125C5.6125 46.1125 4.2375 46.635 4.2375 47.2775C4.2375 47.9175 5.6125 48.44 7.3025 48.44C11.64 48.44 20.395 48.3075 28.0875 48.0975C27.6975 47.5475 27.305 46.985 26.9175 46.4225ZM30.4225 51.185C23.7875 50.96 14.7875 50.815 10.7325 50.815C9.4025 50.815 8.32 51.225 8.32 51.7325C8.32 52.2325 9.4025 52.6425 10.7325 52.6425C14.9875 52.6425 24.67 52.4875 31.345 52.24C31.0292 51.895 30.7233 51.5432 30.4225 51.185ZM14.7875 55.28C14.7875 55.635 15.4025 55.935 16.155 55.935C20.04 55.935 31.87 55.635 31.87 55.28C31.87 54.9225 20.045 54.635 16.155 54.635C15.4025 54.635 14.7875 54.9225 14.7875 55.28ZM7.7925 39.735C7.8625 39.41 8.01 39.05 8.305 38.66C8.2625 38.71 8.245 38.7575 8.29 38.6775C8.555 38.22 8.9 37.6525 9.3375 37C7.3025 36.9775 5.5125 36.965 4.105 36.965C2.085 36.965 0.4425 37.59 0.4425 38.36C0.4425 39.1325 2.085 39.755 4.105 39.755C5.1425 39.755 6.3925 39.7475 7.7925 39.735ZM10.7925 44.105C10.2975 43.6225 8.6375 41.7125 8.435 41.53C7.2275 41.5225 6.14 41.515 5.235 41.515C3.33 41.515 1.79 42.1 1.79 42.8325C1.79 43.5525 3.33 44.145 5.235 44.145C6.7025 44.145 8.605 44.1275 10.7925 44.105ZM10.53 35.275C11.1375 34.4575 11.8225 33.545 12.6275 32.565C9.06 32.5175 5.9325 32.49 3.7375 32.49C1.67 32.49 0 33.125 0 33.9075C0 34.69 1.67 35.3275 3.7375 35.3275C5.4825 35.3275 7.8475 35.31 10.53 35.2775M4.105 30.85C6.53 30.85 10.115 30.8125 14.1675 30.7525C14.9125 29.935 15.685 29.0775 16.54 28.195C12.3954 28.1172 8.25029 28.0738 4.105 28.065C2.085 28.065 0.4425 28.68 0.4425 29.455C0.4425 30.23 2.085 30.85 4.105 30.85Z" fill="#3D5654"/>
</g>
<defs>
<clipPath id="clip0_16_220">
<rect width="60" height="60" fill="white"/>
</clipPath>
</defs>
</svg>
