<svg width="101" height="100" viewBox="0 0 101 100" fill="none" xmlns="http://www.w3.org/2000/svg">
<path d="M26.3964 64.8333L20.6214 70.6042C24.5589 74.5417 25.8714 76.3792 26.1339 78.2167C26.3964 77.9542 31.6464 73.4917 31.6464 71.9167C31.6464 69.5542 30.0714 68.7667 26.3964 64.8333ZM13.2714 54.5917H10.1256C10.1256 54.5917 13.2756 56.4292 13.2756 60.6333V74.8C13.2756 83.9875 20.8839 92.65 30.0714 92.65H37.6839C42.4089 92.65 43.9839 91.6 46.6089 88.975L49.4923 86.0875C51.0673 84.2542 52.9089 82.9417 52.9089 77.9542V73.2292C52.9089 69.2917 50.5423 67.4542 49.4923 66.4042L46.8673 63.7792V73.2292C46.8673 73.2292 48.7048 75.3292 49.7548 75.8542C53.6923 79.0042 50.5464 84.5125 46.8714 84.5125H29.8089C21.9339 84.25 15.6339 77.6917 15.3714 69.8167V62.2042C15.3714 54.5917 13.2756 54.5917 13.2756 54.5917M37.9423 64.8292L32.1714 70.6042C36.1089 74.5417 37.4214 76.3792 37.6839 78.2167C37.9464 77.9542 43.1964 73.4917 43.1964 71.9167C43.1964 69.5542 41.6214 68.5 37.9464 64.8333M49.7548 0L45.8214 3.9375C44.2464 5.5125 44.7714 8.6625 47.9214 11.8125V19.6875C47.9214 20.4708 47.1298 21.2583 47.1298 21.2583C47.1298 21.2583 42.4089 17.0583 38.2131 17.0583H31.9089C27.9714 17.0583 24.8256 20.7333 24.2964 20.9958C22.1964 23.0958 22.1964 27.0375 23.7714 28.8708L28.2339 33.3333C28.2339 33.3333 27.1839 26.25 28.2339 21.5208C28.4964 20.4708 29.8089 19.1583 31.1214 19.1583L41.3589 27.0333L29.5464 39.3667C29.0214 39.8958 27.4464 40.9458 25.8714 40.9458C24.0381 40.9458 23.2464 39.8958 22.4589 38.8458V44.6208C22.4589 46.4542 25.0839 48.5583 27.4464 48.5583H43.1964C44.2464 48.5583 45.5589 48.2958 46.6089 47.2458L51.8589 41.9958C52.6423 41.2042 52.9048 40.1583 52.9048 38.8458V32.8083C52.9048 27.0333 48.4464 22.5708 48.4464 22.5708C48.4464 22.5708 49.4923 21.7833 49.4923 19.4208V13.3875C49.4923 13.3875 51.3298 15.2208 51.5923 16.0125L55.0089 12.5958C56.5798 11.025 53.9548 8.1375 52.9048 6.825C49.7548 3.40833 49.7548 0 49.7548 0ZM30.0756 41.4708C31.6506 40.6792 31.9131 40.1583 33.2256 38.5833L43.2006 28.0833C43.2006 28.0833 48.7089 33.8583 50.5464 37.0083C51.3381 38.5833 52.3839 41.4667 47.6631 41.4667L30.0756 41.4708ZM16.6798 29.4H13.7964C15.6298 30.45 16.9423 33.6 16.9423 35.4375V46.9875C16.9423 50.1333 19.3048 61.4208 29.5423 61.4208H59.2006V80.3208C59.2006 83.4667 58.1506 85.3042 57.3673 86.0917L52.9006 90.2917H55.0006L63.1381 82.9458C64.7131 81.1083 66.5506 79.2708 66.5506 73.4958V61.4167L69.9631 58.0042L75.7381 52.4917C75.7381 57.2167 78.1006 59.3167 80.1964 59.3167C81.3633 59.2421 82.4719 58.7802 83.3464 58.0042L88.5964 53.0167C90.9589 50.6542 92.2714 43.3083 86.4964 43.3083C82.8214 43.3083 78.6214 48.5583 78.3631 49.0833C77.0506 48.2917 76.0006 46.4583 76.0006 46.4583V50.9167C75.4756 51.7083 73.1131 53.5417 71.2756 53.5417H66.5506V49.0833C66.5506 46.9833 67.3381 44.6208 68.3839 43.5708L72.8506 39.3708H70.7506L61.8256 47.5083C60.2506 49.3417 59.2006 52.7583 59.2006 53.5417H25.6089C21.4089 53.5417 18.7839 49.3458 18.7839 45.9333V37.2667C18.7839 30.1833 16.9506 29.3958 16.6839 29.3958M84.6631 54.5917C83.8756 54.5917 83.0881 54.3292 82.0381 53.5417C80.9923 52.7542 79.1548 50.1292 79.1548 50.1292C79.6798 49.6083 81.2548 49.0833 82.5631 49.0833C83.6131 49.0833 84.6631 49.3458 84.9256 49.8708C86.7631 52.2292 86.5006 54.5917 84.6631 54.5917ZM70.7548 0L61.8256 8.1375C61.3006 8.6625 59.2006 11.8125 59.2006 15.4875V38.8458C59.2006 40.4208 58.1506 42.7833 57.3673 43.5708L52.9006 47.7708H55.0006L63.4006 40.1583C64.4506 39.1083 66.5506 36.4833 66.5506 32.0208V9.7125C66.5506 6.29583 68.1256 4.4625 68.9131 3.67083L72.8548 0H70.7548ZM72.0673 59.8417V69.0292L75.2173 72.4417C77.8423 75.0667 77.5798 80.0542 69.7048 87.6625C66.9043 90.664 63.0427 92.4536 58.9423 92.65H44.7714L53.1673 100H58.9423C64.7173 100 69.9673 97.6375 73.3798 93.9625C76.5298 90.55 78.3673 86.0875 78.1048 81.3667V69.2917C78.1048 65.0917 75.4798 62.7292 74.9548 62.2083C74.4298 62.2083 72.0673 59.8417 72.0673 59.8417Z" fill="#3D5654"/>
</svg>
