<svg width="100" height="100" viewBox="0 0 100 100" fill="none" xmlns="http://www.w3.org/2000/svg">
<g clip-path="url(#clip0_16_222)">
<path d="M100 50C100 22.3 77.7 0 50 0C22.4 0 0 22.3 0 50C0 77.6 22.4 100 50 100C77.7 100 100 77.6 100 50ZM96.4 50C96.4 75.5 75.6 96.4 50 96.4C24.5 96.4 3.6 75.5042 3.6 50C3.6 24.4 24.5 3.6 50 3.6C75.6 3.6 96.4 24.4 96.4 50ZM67.7 47C66.6 47 65.2 47 63.4 47.1L64.7 44.9H66.8C74.3 44.9 79.9 45.3 85 46.2L87.3 44C81.6 43 74.7 42.4 67.7 42.4H66L67.1 40.3H69C75.8081 40.2632 82.6046 40.8659 89.3 42.1L91.7 39.8C84.5 38.4 76.8 37.7042 68.5 37.7042C64.9625 37.7167 61.425 37.8833 57.9 38.2042C53.9 46.8 47.5 51.8042 40.3 51.7042C37.5 51.6 33.9958 50.4042 29.5 48L25.3 45.6L26.6 44.4L36.3 48.6L38.4 47L18.8 38.1L15.8 40.4L8.8 37.5L8.9 40.4C18.3 44.7 22.2 47.1 32.1 54.2C45 63.4 56.5 68.4 72.5 71.6L76.7 67.6H75.7C65.1 67.6 55.6 64.1 50.1 58.2C54.7 55.4 60.3958 54.1042 68.3 54.1042C70.4 54.1042 73.4 54.3 76.2 54.6L78.6 52.3C74.8506 51.8418 71.0772 51.6081 67.3 51.6C64.7636 51.5958 62.2281 51.6959 59.7 51.9L61.5 49.7C63.6292 49.575 65.7667 49.5083 67.9 49.5C73.2 49.5 76.7 49.7 80.7 50.3L83 48.1C78.8 47.4042 73 47 67.7 47Z" fill="#3D5654"/>
</g>
<defs>
<clipPath id="clip0_16_222">
<rect width="100" height="100" fill="white"/>
</clipPath>
</defs>
</svg>
