<svg width="38" height="38" viewBox="0 0 38 38" fill="none" xmlns="http://www.w3.org/2000/svg">
<path d="M27.2001 33.25H10.7984C9.61877 33.25 8.88252 33.25 8.31094 33.1835V35.2276C8.31094 35.5425 8.18583 35.8446 7.96313 36.0673C7.74043 36.29 7.43838 36.4151 7.12344 36.4151C6.80849 36.4151 6.50645 36.29 6.28375 36.0673C6.06105 35.8446 5.93594 35.5425 5.93594 35.2276V32.2747C4.58399 31.3472 3.64416 29.9318 3.31394 28.3258C3.16669 27.6292 3.16669 26.79 3.16669 25.1069V17.8062C3.16669 15.8428 4.65977 14.25 6.4996 14.25C8.34102 14.25 9.8341 15.8413 9.8341 17.8062V22.6939C9.8341 24.187 9.8341 24.9343 10.2964 25.3967C10.7604 25.8606 11.5077 25.8606 13.0008 25.8606H25.0009C26.4924 25.8606 27.2397 25.8606 27.7036 25.3967C28.1675 24.9343 28.1675 24.187 28.1675 22.6939V17.8062C28.1675 15.8428 29.659 14.25 31.5004 14.25C33.3403 14.25 34.8334 15.8413 34.8334 17.8062V25.1069C34.8334 26.79 34.8334 27.6307 34.6845 28.3258C34.3541 29.9317 33.4144 31.3471 32.0625 32.2747V35.2292C32.0625 35.5441 31.9374 35.8462 31.7147 36.0689C31.492 36.2916 31.19 36.4167 30.875 36.4167C30.5601 36.4167 30.258 36.2916 30.0353 36.0689C29.8126 35.8462 29.6875 35.5441 29.6875 35.2292V33.1835C29.1175 33.25 28.3797 33.25 27.2001 33.25Z" fill="#3D5654"/>
<path d="M9.5 13.7307V12.9105C9.5 9.26885 9.5 7.44644 10.2632 6.08952C10.759 5.20573 11.4787 4.468 12.35 3.95044C13.6721 3.16669 15.4486 3.16669 19 3.16669C22.5514 3.16669 24.3279 3.16669 25.65 3.95044C26.5161 4.46344 27.2365 5.20127 27.7368 6.08952C28.5 7.44644 28.5 9.26727 28.5 12.9105V13.7307C27.8987 14.2257 27.4149 14.8481 27.0836 15.5529C26.7522 16.2577 26.5817 17.0274 26.5842 17.8062V22.6939C26.5842 23.4413 26.5842 23.8134 26.3514 24.0461C26.1202 24.2773 25.7466 24.2773 24.9992 24.2773H13.0023C12.255 24.2773 11.8813 24.2773 11.6502 24.0461C11.419 23.8134 11.419 23.4413 11.419 22.6939V17.8062C11.4211 17.0271 11.2501 16.2573 10.9182 15.5525C10.5863 14.8476 10.1019 14.2253 9.5 13.7307Z" fill="#3D5654"/>
</svg>
