<svg width="38" height="38" viewBox="0 0 38 38" fill="none" xmlns="http://www.w3.org/2000/svg">
<path d="M30.0834 6.33329H26.9167V4.74996C26.9167 4.33003 26.7499 3.92731 26.4529 3.63037C26.156 3.33344 25.7533 3.16663 25.3334 3.16663C24.9134 3.16663 24.5107 3.33344 24.2138 3.63037C23.9168 3.92731 23.75 4.33003 23.75 4.74996V6.33329H14.25V4.74996C14.25 4.33003 14.0832 3.92731 13.7863 3.63037C13.4893 3.33344 13.0866 3.16663 12.6667 3.16663C12.2468 3.16663 11.844 3.33344 11.5471 3.63037C11.2502 3.92731 11.0834 4.33003 11.0834 4.74996V6.33329H7.91669C6.65691 6.33329 5.44873 6.83374 4.55793 7.72454C3.66713 8.61533 3.16669 9.82351 3.16669 11.0833V30.0833C3.16669 31.3431 3.66713 32.5513 4.55793 33.442C5.44873 34.3328 6.65691 34.8333 7.91669 34.8333H30.0834C31.3431 34.8333 32.5513 34.3328 33.4421 33.442C34.3329 32.5513 34.8334 31.3431 34.8334 30.0833V11.0833C34.8334 9.82351 34.3329 8.61533 33.4421 7.72454C32.5513 6.83374 31.3431 6.33329 30.0834 6.33329ZM31.6667 30.0833C31.6667 30.5032 31.4999 30.9059 31.2029 31.2029C30.906 31.4998 30.5033 31.6666 30.0834 31.6666H7.91669C7.49676 31.6666 7.09403 31.4998 6.7971 31.2029C6.50017 30.9059 6.33335 30.5032 6.33335 30.0833V19H31.6667V30.0833ZM31.6667 15.8333H6.33335V11.0833C6.33335 10.6634 6.50017 10.2606 6.7971 9.96371C7.09403 9.66677 7.49676 9.49996 7.91669 9.49996H11.0834V11.0833C11.0834 11.5032 11.2502 11.9059 11.5471 12.2029C11.844 12.4998 12.2468 12.6666 12.6667 12.6666C13.0866 12.6666 13.4893 12.4998 13.7863 12.2029C14.0832 11.9059 14.25 11.5032 14.25 11.0833V9.49996H23.75V11.0833C23.75 11.5032 23.9168 11.9059 24.2138 12.2029C24.5107 12.4998 24.9134 12.6666 25.3334 12.6666C25.7533 12.6666 26.156 12.4998 26.4529 12.2029C26.7499 11.9059 26.9167 11.5032 26.9167 11.0833V9.49996H30.0834C30.5033 9.49996 30.906 9.66677 31.2029 9.96371C31.4999 10.2606 31.6667 10.6634 31.6667 11.0833V15.8333Z" fill="#3D5654"/>
</svg>
