<svg width="514" height="389" viewBox="0 0 514 389" fill="none" xmlns="http://www.w3.org/2000/svg">
<path d="M391.207 23.455C394.615 24.512 397.894 24.9718 398.438 32.4181C398.715 36.2107 402.066 36.5987 404.539 36.701C408.975 36.8858 410.136 37.981 409.872 44.022C409.659 48.9007 410.691 50.3441 413.677 50.7459C417.609 51.2743 421.294 52.9866 425.432 50.5564C429.157 48.3707 431.287 51.256 433.055 58.1066C433.43 59.5577 433.967 61.4929 435.077 60.4466C440.138 55.678 446.18 59.3927 451.602 55.1846C455.203 52.3894 460.335 53.6556 463.948 58.9589C465.695 61.5235 467.768 62.7561 469.937 60.5016C472.236 58.1112 474.14 60.3107 475.323 62.1696C479.082 68.0732 483.325 66.3181 487.637 65.0626C488.215 64.8945 488.774 64.5768 489.341 64.3294C491.683 63.3045 489.488 71.5145 492.113 68.0151C493.504 66.1608 494.477 65.7728 496.05 65.4811C503.218 64.1507 508.504 70.3597 514 75.8631L511.371 85.2951C511.181 85.2212 510.99 85.1535 510.798 85.0919C509.239 84.5955 507.815 80.4286 507.345 81.5681C506.373 83.9204 504.418 85.932 504.672 89.2221C504.998 93.444 503.631 94.4414 501.183 94.6201C499.003 94.7789 496.775 95.3685 495.087 98.0003C493.712 100.146 492.083 100.189 490.133 100.075C485.094 99.7783 482.382 103.432 481.752 111.233C481.105 119.233 476.213 122.105 473.626 127.74C472.79 129.56 472.04 127.2 471.591 125.986C469.538 120.429 470.81 115.263 472.641 110.388C473.527 108.029 474.951 106.154 476.075 103.989C476.757 102.677 478.532 101.834 477.723 99.7935C477.008 97.9881 475.365 97.4978 473.941 97.5543C472.162 97.6261 470.958 99.4896 470.138 101.605C468.709 105.292 467.024 104.75 464.548 104.072C458.092 102.305 451.409 101.271 446.912 111.165C445.722 113.785 442.039 114.167 443.162 118.421C444.219 122.424 447.474 119.776 449.68 120.813C451.309 121.578 453.505 120.719 453.578 124.069C453.656 127.68 456.062 131.722 453.378 134.938C452.545 135.937 451.793 136.545 451.68 138.245C451.623 139.102 451.642 140.399 450.956 140.396C450.307 140.393 450.378 139.113 450.311 138.29C450.262 137.682 450.296 137.06 450.25 136.451C450.122 134.741 450.615 132.887 449.746 131.349C449.443 133.08 449.339 134.974 448.802 136.515C446.244 143.872 443.518 150.822 437.54 153.037C432.064 155.066 431.52 156.778 432.837 165.225C433.317 168.304 433.328 170.926 431.166 172.016C429.076 173.068 428.424 170.103 427.703 168.05C427.147 166.468 426.835 164.607 426.654 162.816C426.389 160.192 425.435 159.955 424.096 160.706C423.054 161.291 421.948 163.274 420.997 160.925C420.341 159.304 419.923 158.232 418.976 160.265C418.408 161.482 417.515 162.982 417.626 164.168C417.867 166.746 419.12 164.659 419.934 164.78C422.261 165.128 424.454 165.551 421.396 169.741C420.009 171.641 420.424 174.128 420.742 176.609C422.366 189.277 418.811 198.636 410.938 202.931C408.971 204.005 406.513 203.821 405.664 208.057C405.123 210.756 404.315 210.527 403.529 207.825C402.579 204.558 401.157 206.649 400.091 207.788C398.643 209.337 398.619 211.277 399.963 213.136C400.559 213.961 401.197 214.721 401.754 215.603C405.555 221.613 404.217 230.028 399.045 233.167C397.618 234.033 397.399 232.545 396.828 231.308C395.275 227.943 392.595 223.971 390.601 226.727C388.027 230.283 390.749 234.506 392.796 237.498C394.302 239.7 396.075 242.35 395.693 245.209C394.818 251.75 398.611 255.727 398.852 261.521C398.961 264.133 400.609 264.524 401.98 265.104C406.001 266.807 409.746 270.326 414.19 269.268C414.954 269.086 416.077 269.555 416.133 270.81C416.213 272.591 415.002 272.078 414.294 272.176C409.225 272.871 404.035 271.567 399.476 269.341C395.96 267.626 392.986 261.45 390.702 256.297C388.804 252.005 386.724 247.908 384.475 244.033C383.817 242.901 382.587 242.186 383.382 240.474C384.279 238.543 385.588 239.302 386.518 240.553C387.868 242.369 389.046 244.483 390.314 246.446C390.734 247.097 391.335 247.809 391.843 247.153C392.439 246.387 391.801 245.553 391.489 244.887C388.189 237.836 386.952 230.014 387.405 221.395C387.574 218.181 387.23 214.964 384.108 215.994C381.422 216.88 381.493 212.965 380.56 210.949C376.644 202.486 375.19 202.27 370.161 209.129C369.005 210.704 367.739 212.09 366.476 213.458C362.132 218.167 360.987 225.143 363.219 232.887C363.676 234.474 364.796 236.231 363.559 237.838C362.419 239.319 361.458 237.445 360.372 236.878C355.359 234.262 353.471 227.883 352.782 221.02C351.755 210.797 346.716 204.888 343.115 197.399C342.191 195.476 340.811 195.069 339.362 195.031C337.553 194.982 335.729 194.738 333.938 195.005C332.823 195.172 331.762 194.924 330.716 194.574C328.931 193.979 327.873 197.48 329.328 199.164C330.023 199.968 330.776 200.699 331.418 201.57C332.574 203.137 331.384 204.087 331.048 205.416C328.923 213.825 323.626 215.989 319.074 219.183C316.228 221.179 313.533 224.198 310.204 224.497C309.585 224.552 308.97 225.048 308.97 226.127C308.97 227.582 309.724 228.285 310.527 228.395C312.566 228.676 314.362 226.978 316.312 226.502C319.028 225.843 320.339 228.656 319.127 232.427C316.738 239.871 313.666 246.736 309.265 251.969C302.527 259.984 301.885 263.257 304.412 275.261C306.392 284.669 306.16 286.088 300.789 292.311C298.739 294.686 296.983 296.863 298.002 301.358C298.405 303.136 298.504 305.566 297.54 306.582C293.687 310.646 292.426 317.407 290.006 322.905C286.117 331.745 280.156 331.32 274.422 331.986C272.625 332.195 271.27 329.473 271.088 327.346C270.431 319.689 267.945 312.719 266.222 305.966C263.571 295.575 261.582 286.616 264.238 275.66C265 272.515 263.996 267.32 262.641 264.265C260.37 259.147 259.291 253.99 259.396 247.969C259.429 246.051 258.746 243.662 257.48 243.943C254.028 244.71 251.228 239.852 248.335 240.847C245.09 241.963 241.537 240.987 238.554 243.821C236.551 245.724 234.779 244.959 232.955 243.127C228.374 238.53 225.779 231.008 221.783 225.552C221.364 224.98 221.111 223.855 221.211 223.011C222.585 211.39 219.956 198.026 227.136 188.909C230.626 184.476 232.005 177.684 235.363 173.141C236.773 171.233 236.838 168.651 234.695 167.374C233.266 166.521 231.776 165.295 232.241 162.938C233.016 159.011 231.524 154.872 232.827 151.277C233.997 148.053 236.269 148.638 238.259 148.8C244.191 149.283 244.733 148.588 243.679 139.35C243.233 135.436 243.843 133.611 246.032 131.192C248.571 128.384 250.998 125.12 253.579 122.336C257.731 117.854 258.2 116.113 255.235 109.306C254.307 107.177 253.705 105.094 253.339 102.696C252.321 96.0146 253.007 93.14 257.136 90.1768C260.017 88.1101 262.178 85.405 263.445 80.8853C265.646 73.0327 269.886 68.5818 274.906 65.6308C276.966 64.4195 279.118 63.5748 281.193 62.4125C284.888 60.3412 288.044 59.3835 291.395 64.7983C293.6 68.3618 297.807 67.8135 300.727 70.7034C301.719 71.6871 303.261 71.8566 303.882 73.1488C306.312 78.2001 308.093 80.8151 309.473 72.0766C309.79 70.071 311.89 69.402 313.022 71.461C314.742 74.5907 316.291 73.8576 318.243 72.1361C321.518 69.2493 325.316 70.7126 328.842 69.6632C332.585 68.5497 330.13 66.0859 329.647 63.9613L329.714 63.8345C332.659 64.7555 335.589 65.8049 338.552 66.5442C340.121 66.9352 341.226 66.9932 341.713 63.2434C342.77 55.1036 345.163 53.5686 351.015 54.4102C353.109 54.7111 355.133 54.1597 357.254 55.5909C358.479 56.4172 360.677 56.0537 361.017 52.73C361.491 48.0942 363.042 48.6914 365.328 49.7148C367.442 50.6603 370.328 52.2779 370.298 45.7603C370.29 44.0526 371.672 43.741 372.643 43.4172C376.908 41.9967 380.887 39.0059 385.485 39.3191C389.708 39.6062 390.847 35.3248 388.577 29.1768C389.822 27.6708 390.538 25.5889 391.207 23.455ZM255.896 150.396C251.445 151.597 248.424 155.698 246.611 161.608C245.725 164.496 244.953 167.086 242.994 168.509C242.341 168.982 241.017 168.71 241.177 170.012C241.302 171.026 242.638 170.813 243.354 170.432C246.942 168.521 250.513 166.732 254.36 166.222C256.461 165.942 258.347 166.404 260.178 167.684C261.979 168.942 261.748 171.542 261.847 174.01C261.925 175.929 262.908 177.528 264.165 177.627C268.193 177.944 272.032 183.16 276.299 178.614C276.957 177.913 278.388 178.058 279.19 178.658C283.629 181.987 288.376 179.677 292.938 180.635C295.172 181.104 295.966 177.763 296.394 175.286C296.917 172.255 295.307 172.194 293.762 172.031C292.424 171.889 291.036 170.178 289.819 170.496C285.631 171.589 283.787 168.933 283.522 162.793C283.469 161.553 282.976 160.37 281.967 160.583C281.288 160.726 281.347 161.864 281.09 162.619C279.606 166.978 275.767 167.727 273.931 164.018C273.374 162.894 273.325 159.911 272.516 160.531C268.346 163.726 266.502 157.813 263.724 155.761C261.9 154.412 260.766 153.917 260.582 157.962C260.485 160.114 259.697 162.831 258.108 162.116C255.825 161.09 257.851 158.672 257.949 156.847C258.1 154.111 259.396 150.469 255.896 150.396ZM271.806 116.887C274.585 117.109 274.355 116.886 275.484 114.168C278.135 107.785 277.084 101.475 275.7 95.118C275.311 93.3294 275.466 90.0255 273.32 91.194C271.686 92.0845 270.663 94.9897 271.722 97.1877C275.301 104.623 270.592 108.213 268.665 112.71C267.461 115.522 265.041 118.373 262.997 113.062C262.698 112.285 262.009 111.656 261.525 112.389C261.178 112.914 261.04 114.11 261.137 114.915C261.775 120.191 264.496 119.067 266.822 119.076C268.616 119.084 269.753 115.552 271.806 116.887ZM304.874 154.005C304.026 148.957 299.337 149.394 298.644 143.602C298.486 142.281 297.304 145.631 296.463 146.602C295.131 148.14 293.786 148.6 292.961 146.07C292.286 144.001 291.56 142.757 290.385 144.647C289.043 146.807 287.454 149.037 287.712 152.524C287.876 154.74 288.992 156.005 290.218 155.597C294.067 154.317 297.631 155.139 301.265 157.323C302.787 158.236 304.454 157.14 304.874 154.005ZM301.081 201.923C299.821 202.338 299.772 203.736 299.706 205.265C299.512 209.722 301.611 212.314 303.154 215.349C303.854 216.725 304.573 219.186 305.73 218.433C307.4 217.345 306.348 214.84 306.032 212.949C305.433 209.357 303.699 206.73 302.484 203.663C302.206 202.957 301.604 202.551 301.081 201.923ZM0.00012207 123.128C5.02963 118.418 10.1221 113.913 15.7517 111.011C16.4698 110.641 17.4679 109.962 17.3899 108.636C17.2999 107.101 16.0867 107.768 15.4507 107.197C12.8594 104.869 10.1732 102.745 7.7169 100.119C4.6826 96.8746 4.82361 94.1894 7.94793 91.2826C8.62199 90.6549 9.41507 90.3295 10.1491 89.8468C10.9902 89.2924 12.7024 89.6742 12.3664 87.7787C12.0713 86.1138 10.6082 87.687 9.6671 87.6061C8.87602 87.5389 8.02593 87.6076 7.31286 87.1815C5.93772 86.3597 4.7246 84.794 4.97062 82.4051C5.28366 79.364 7.05184 79.1288 8.709 79.0998C9.44708 79.086 10.5052 80.4072 10.8332 78.9959C11.1382 77.6853 9.87412 77.4761 9.23706 76.8452C4.47758 72.1254 4.49558 70.9707 9.29006 66.7198C10.5032 65.6445 11.6393 64.3233 12.9124 63.4633C16.5318 61.0194 19.9331 59.5393 24.2046 61.8336C28.834 64.3202 34.0406 64.1751 38.9241 65.7132C44.9827 67.621 50.7353 67.6653 56.9139 65.2672C62.8485 62.9639 69.2101 64.6777 75.1627 67.8746C75.8778 68.258 76.7949 69.2233 77.351 67.9555C77.854 66.8084 77.2399 65.5636 76.5669 64.8716C75.5618 63.8406 74.6427 62.9746 74.3877 60.8361C74.0986 58.4136 73.1605 57.8729 71.9374 59.8815C70.4873 62.2628 68.7421 62.22 66.9619 61.0362C65.1397 59.825 63.7466 58.047 65.0077 54.6897C65.7138 52.8094 66.4869 51.0926 66.4018 48.7724C66.2818 45.5174 68.145 44.801 69.2071 45.8428C72.6245 49.1909 76.9089 47.3351 80.3803 51.4317C83.2345 54.8012 87.176 55.7895 90.9413 52.284C93.1146 50.2617 95.4078 49.8141 94.9327 55.7818C94.7487 58.099 95.2578 60.6284 96.3819 61.5372C99.4682 64.0315 102.057 65.9546 97.664 70.8348C96.7429 71.8581 97.428 73.7858 98.5741 74.2822C99.9402 74.8733 101.899 75.2842 102.056 72.6234C102.24 69.5059 102.949 67.8135 104.542 66.0157C107.141 63.083 106.704 61.2928 103.366 61.2394C100.653 61.1951 99.7242 56.903 97.683 55.1938C100.06 54.54 100.994 50.1853 103.558 49.9165C104.953 49.7698 106.335 49.3085 107.72 48.9603C109.696 48.4638 111.049 46.9608 111.34 43.7196C111.488 42.0761 111.41 40.5609 110.139 40.1744C108.326 39.6245 106.732 37.978 105.096 41.9875C102.786 47.6467 98.2081 42.9101 95.0087 45.5021L94.1797 42.1494C94.6807 41.3368 94.7367 40.5257 94.1777 39.7147C94.5887 36.4551 93.0395 33.5163 94.0746 29.8611C95.8108 23.73 96.2469 23.1037 99.7472 26.4916C100.791 27.5028 102.127 28.6422 101.719 30.605C101.172 33.2291 99.7172 31.0052 98.6771 31.1121C97.386 31.245 96.1429 31.4222 96.1289 33.8966C96.1149 36.3314 97.292 36.7636 98.6241 36.7514C100.027 36.7392 101.434 36.95 102.833 36.8354C105.412 36.6246 106.919 35.2881 104.846 31.2083C103.944 29.4319 102.786 27.4707 104.273 25.6775C105.821 23.8094 106.895 26.5237 107.645 27.9686C108.394 29.4121 111.021 29.4105 109.466 33.3773C108.995 34.5794 111.488 35.3996 112.762 35.8793C113.371 36.1084 113.97 35.5402 114.122 34.503C114.43 32.3967 113.773 30.993 112.595 30.0383C112.408 29.8925 112.23 29.7261 112.059 29.5404C104.619 21.1883 104.708 18.5688 112.698 11.3867C114.08 10.1409 115.578 9.22214 117.14 8.66178C125.319 5.68327 133.701 4.82333 142.001 3.34018C145.471 2.72004 149.146 4.53463 152.705 5.45873C154.057 5.81005 156.42 6.66236 156.453 7.46732C156.55 9.80736 154.422 9.72182 153.471 11.2157C152.931 12.0649 151.924 12.6698 152.461 14.0964C153.074 15.7231 154.431 15.801 155.017 14.6005C158.508 7.45663 163.378 9.26358 168.167 8.8084C172.065 8.43876 176.001 7.65519 180.006 5.55038C184.417 3.23172 189.677 2.55965 194.633 1.95326C195.626 1.83259 196.903 2.69407 197.597 2.01894C203.592 -3.80367 208.604 4.86151 214.201 4.4491C214.868 4.40022 215.382 5.26168 215.168 6.28354C215.008 7.04726 214.49 8.14398 214.083 8.19438C211.287 8.54417 208.476 8.63582 205.672 8.86646C205.094 8.91381 204.524 9.20402 203.95 9.38273C204.29 10.8812 205.162 10.3695 205.795 10.3679C211.785 10.3466 217.763 11.6388 223.772 10.539C225.231 10.2717 227.346 9.95399 227.633 13.3067C227.859 15.9446 226.023 16.4441 224.829 17.4446C220.536 21.0432 215.75 24.2081 219.038 34.0295C219.449 35.2561 218.382 36.3894 218.4 37.3425C218.562 45.8122 213.715 52.4321 214.75 61.2623C215.041 63.7459 214.02 66.3364 212.367 67.1154C208.755 68.817 205.946 73.6789 201.822 73.2863C201.432 73.2497 200.948 73.2909 200.646 73.6071C194.742 79.7749 186.879 82.7015 184.902 95.4235C184.151 100.255 182.299 100.858 179.473 99.624C174.998 97.6689 172.785 92.4679 170.536 86.853C168.207 81.035 167.197 75.7684 170.764 70.3047C171.321 69.4524 171.282 68.3832 170.503 67.2697C168.724 64.728 165.58 56.4004 165.108 53.6312C163.661 45.1355 158.122 38.1994 152.635 40.4387C146.571 42.9131 144.389 36.7484 141.343 31.8697C140.105 29.8871 141.19 28.5002 142.31 27.6464C143.911 26.4229 145.797 26.4305 147.348 24.7396C148.605 23.3695 148.69 22.1995 148.049 20.1833C147.373 18.0555 146.545 18.804 145.629 19.3646C140.179 22.6974 135.343 26.7803 133.554 36.4628C132.955 39.7086 131.276 42.3571 130.726 46.0749C130.253 49.2734 127.385 48.5448 125.451 49.0244C124.746 49.2001 123.525 48.1813 123.463 49.6721C123.417 50.7779 124.882 50.2494 125.51 50.8008C129.856 54.6103 135.247 52.2916 139.585 57.0893C143.04 60.9095 147.11 62.9119 148.791 70.0939C149.611 73.5994 152.791 74.8672 155.185 76.4038C156.304 77.1217 157.927 77.6762 156.705 79.8864C155.748 81.617 155.294 85.767 152.734 83.705C151.871 83.01 151.229 81.6888 150.468 80.6867C150.026 80.1048 149.427 79.3273 148.936 79.9841C148.394 80.7081 148.922 81.6093 149.299 82.2646C149.829 83.1872 150.477 83.9677 150.947 84.9498C151.805 86.7431 154.054 88.4202 152.295 90.8901C150.967 92.7551 149.296 95.7565 147.049 94.1466C142.622 90.9771 138.655 85.8724 133.232 87.3449C132.718 87.4839 132.213 86.4437 132.204 85.4432C132.193 84.3236 132.715 83.8654 133.368 83.7859C134.367 83.6637 135.424 83.8867 136.358 83.4621C138.922 82.2951 140.497 77.4547 139.584 73.966C138.523 69.9137 132.094 65.2016 129.051 65.7346C126.894 66.1134 128.302 67.4102 128.156 68.8109C127.745 72.7578 129.804 79.0127 124.304 79.3502C122.351 79.4709 123.897 81.9286 124.684 83.0421C126.114 85.0659 129.459 85.3852 129.067 88.3331C128.694 91.1436 125.433 87.0577 123.78 89.9202C123.092 91.1116 121.808 91.2353 120.986 90.2103C117.76 86.1901 115.812 90.3631 113.752 92.8559C107.623 100.273 107.876 104.373 114.991 109.609C116.6 110.793 118.083 112.574 119.805 113.214C124.292 114.883 128.114 117.437 129.241 125.276C129.44 126.657 130.556 129.159 131.905 127.225C132.648 126.16 132.653 124.385 132.079 123.101C130.322 119.16 130.654 116.545 133.669 114.53C135.014 113.632 134.605 111.266 134.042 109.624C133.041 106.707 133.425 103.629 133.333 100.6C133.099 92.833 135.955 89.9904 140.534 93.6807C142.276 95.0844 144.279 96.731 145.254 99.1276C146.89 103.149 148.176 105.234 151.342 102.236C153.401 100.287 154.865 103.279 155.53 105.714C156.985 111.04 159.646 114.471 162.355 118.147C164.417 120.947 167.68 123.461 165.738 129.453C165.11 131.389 166.528 131.816 167.305 132.617C168.655 134.008 169.918 135.549 170.218 138.204C170.356 139.425 169.839 141.577 169.741 141.461C167.531 138.847 164.892 141.335 162.718 140.003C161.251 139.105 161.169 136.732 161.718 134.416C162.562 130.859 161.34 130.95 159.604 131.607C158.45 132.044 157.178 132.323 156.019 132.056C151.84 131.095 152.076 133.264 153.346 138.354C154.473 142.87 155.627 142.518 157.729 140.705C158.712 139.857 159.747 140.048 160.207 141.809C160.644 143.481 159.962 145.438 159.127 145.644C155.994 146.42 153.436 152.186 149.713 148.132C148.593 146.914 146.711 147.839 146.519 149.2C145.759 154.601 142.779 156.023 140.32 158.502C139.856 158.97 139.517 159.927 139.314 160.767C137.505 168.218 134.92 174.595 130.633 179.604C128.455 182.149 128.314 186.574 130.549 190.232C131.646 192.027 131.956 194.504 130.478 195.796C129.014 197.075 128.808 193.866 127.929 192.873C126.992 191.814 126.2 190.278 125.606 188.718C123.855 184.124 121.165 183.629 118.301 185.031C116.548 185.889 114.855 186.538 113.028 186.54C109.431 186.543 106.221 186.271 107.055 194.868C107.366 198.074 104.364 201.675 107.11 205.769C109.11 208.749 110.917 210.163 113.441 207.758C114.292 206.947 115.088 205.995 115.949 205.208C117.203 204.061 118.763 203.181 119.959 204.313C121.794 206.052 119.997 208.237 119.512 209.745C117.952 214.604 118.259 217.121 122.252 217.07C124.383 217.045 125.572 219.22 125.621 222.418C125.667 225.415 124.835 229.183 127.344 230.341C129.961 231.548 133.284 231.957 135.326 229.464C139.722 224.098 144.054 225.235 148.78 227.497C150.051 228.105 151.371 228.392 152.701 228.525C160.367 229.298 164.587 240.356 171.625 242.968C174.026 255.655 182.604 253.694 188.126 258.962C189.557 260.328 191.395 261.029 192.944 262.487C195.929 265.304 196.752 268.919 194.487 273.164C192.222 277.407 191.636 282.381 190.671 287.408C189.086 295.67 188.11 305.213 180.333 305.965C178.237 306.168 177.148 309.18 176.528 312.395C174.04 325.299 173.141 326.66 164.013 332.046C163.305 332.464 163.1 332.892 163.332 333.885C164.766 340.016 162.017 341.685 159.107 342.101C156.388 342.49 156.249 345.944 155.17 348.192C153.23 352.235 152.778 357.742 149.885 360.952C149.705 361.153 149.907 362.929 150.252 363.334C152.123 365.526 151.293 366.938 150.104 369.22C146.16 376.797 146.231 377.212 149.773 385.094C150.339 386.352 151.433 387.29 149.656 388.204C144.852 390.672 140.341 387.26 138.521 379.954C137.101 374.256 137.017 368.031 138.009 362.704C140.08 351.582 139.778 340.023 141.538 328.745C142.886 320.11 143.973 310.504 144.063 301.104C144.12 295.222 142.584 290.693 139.533 287.939C136.157 284.89 134.265 280.607 132.993 275.271C132.655 273.853 132.047 272.588 131.62 271.214C130.493 267.586 126.015 266.387 128.585 259.964C129.975 256.491 129.364 251.436 131.925 248.565C133.575 246.717 133.659 244.028 133.754 241.17C133.856 238.117 133.374 236.858 131.174 236.532C127.197 235.942 123.028 235.287 122.047 227.35C121.834 225.626 120.482 225.436 119.587 225.16C114.967 223.726 111.322 219.041 105.982 218.743C101.474 218.493 95.3998 214.999 93.1125 205.83C92.1024 201.781 90.9723 198.837 86.7929 200.13C83.3746 201.187 81.1563 194.62 79.9962 189.862C78.187 182.446 75.6078 176.752 71.4304 171.646C66.9149 166.127 65.6748 157.06 65.7888 148.249C65.8668 142.227 66.1658 136.528 61.9254 133.252C61.0223 132.554 60.6523 131.431 60.5272 129.629C60.0302 122.481 59.6462 122.08 54.6757 121.477C53.0765 121.283 53.1395 119.209 52.5514 117.697C48.9361 108.407 44.3446 101.529 36.6728 100.262C33.8926 99.8027 32.1854 101.993 29.9662 102.648C27.6109 103.343 24.8076 101.666 26.3558 108.352C26.8128 110.328 24.7856 113.321 23.1275 112.502C20.0962 111.003 18.652 113.484 17.0979 116.426C16.7278 117.127 16.2558 118.207 15.8087 118.233C10.3162 118.552 5.77571 124.115 0.352158 124.721L0.00012207 123.128ZM114.181 54.5522C113.196 54.8058 112.211 55.1021 111.528 56.3531C110.749 57.7797 111.042 59.2766 111.693 60.4711C113.802 64.337 115.369 69.1271 119.098 70.2788C119.822 70.5018 118.91 73.8667 120.471 73.2787C121.233 72.993 122.018 71.267 122.295 69.9488C122.651 68.2488 121.637 67.0635 120.693 66.7076C117.458 65.4887 116.316 61.9893 115.969 57.4131C115.85 55.8505 115.538 54.3964 114.181 54.5522Z" fill="#C4C2C2"/>
</svg>
