<svg width="50" height="50" viewBox="0 0 50 50" fill="none" xmlns="http://www.w3.org/2000/svg">
<g clip-path="url(#clip0_3_72)">
<path d="M24.8192 -0.0596226C24.7379 -0.0449365 24.6576 -0.0250235 24.5788 -7.21727e-06C24.1447 0.0973038 23.7577 0.342153 23.4838 0.692818C23.21 1.04348 23.0662 1.47826 23.0769 1.92307V3.84615H5.76923C4.23914 3.84615 2.77171 4.45397 1.68977 5.53592C0.607828 6.61786 0 8.08528 0 9.61538L0 34.6154C0 37.8 2.58462 40.3846 5.76923 40.3846H23.0769V41.1058L12.6192 46.3346C12.1571 46.5577 11.8026 46.9553 11.6337 47.4398C11.4647 47.9244 11.4951 48.4562 11.7183 48.9183C11.9414 49.3804 12.339 49.7349 12.8235 49.9038C13.308 50.0728 13.8398 50.0424 14.3019 49.8192L23.0769 45.4327V46.1538C23.0769 46.6639 23.2795 47.153 23.6402 47.5137C24.0008 47.8743 24.49 48.0769 25 48.0769C25.51 48.0769 25.9992 47.8743 26.3598 47.5137C26.7205 47.153 26.9231 46.6639 26.9231 46.1538V45.4327L35.6981 49.8192C36.1602 50.0424 36.692 50.0728 37.1765 49.9038C37.661 49.7349 38.0586 49.3804 38.2817 48.9183C38.5049 48.4562 38.5353 47.9244 38.3663 47.4398C38.1974 46.9553 37.8429 46.5577 37.3808 46.3346L26.9231 41.1058V40.3846H44.2308C47.4154 40.3846 50 37.8 50 34.6154V9.61538C50 8.08528 49.3922 6.61786 48.3102 5.53592C47.2283 4.45397 45.7609 3.84615 44.2308 3.84615H26.9231V1.92307C26.9328 1.6496 26.884 1.37721 26.78 1.1241C26.6761 0.870987 26.5193 0.642976 26.3201 0.455304C26.121 0.267632 25.8841 0.124619 25.6253 0.0358205C25.3664 -0.0529779 25.0916 -0.0855169 24.8192 -0.0596226ZM3.84615 9.61538H46.1538V34.6154H3.84615V9.61538ZM40.1442 11.5385C39.7135 11.5848 39.3109 11.7752 39.0019 12.0788L32.6923 18.3904L28.3058 14C28.0957 13.7844 27.838 13.6212 27.5533 13.5234C27.2686 13.4256 26.965 13.396 26.6668 13.437C26.3686 13.478 26.0842 13.5884 25.8365 13.7593C25.5887 13.9302 25.3845 14.1569 25.2404 14.4211L19.5308 24.3981L17.1865 18.5077C17.0727 18.2035 16.8837 17.9332 16.6372 17.7218C16.3906 17.5105 16.0946 17.365 15.7766 17.2989C15.4587 17.2329 15.1292 17.2484 14.8188 17.3441C14.5085 17.4398 14.2275 17.6125 14.0019 17.8461L8.23269 23.6154C8.05086 23.7971 7.9066 24.0128 7.80815 24.2503C7.70969 24.4877 7.65897 24.7423 7.65888 24.9993C7.65879 25.2564 7.70934 25.5109 7.80763 25.7485C7.90592 25.986 8.05003 26.2018 8.23173 26.3836C8.41343 26.5655 8.62917 26.7097 8.86663 26.8082C9.10409 26.9066 9.35861 26.9574 9.61567 26.9575C9.87272 26.9575 10.1273 26.907 10.3648 26.8087C10.6023 26.7104 10.8182 26.5663 11 26.3846L14.6654 22.7192L17.4308 29.5692C17.5613 29.9128 17.7875 30.2117 18.0827 30.4307C18.3778 30.6497 18.7295 30.7795 19.0961 30.8048C19.4628 30.8301 19.829 30.7498 20.1514 30.5734C20.4738 30.397 20.7389 30.132 20.9154 29.8096L27.3462 18.5711L31.3115 22.5385C31.4909 22.724 31.7057 22.8715 31.9433 22.9723C32.1808 23.073 32.4362 23.125 32.6942 23.125C32.9523 23.125 33.2077 23.073 33.4452 22.9723C33.6827 22.8715 33.8976 22.724 34.0769 22.5385L41.7692 14.8461C42.073 14.5649 42.2779 14.1931 42.3535 13.7861C42.4291 13.3791 42.3714 12.9586 42.1888 12.587C42.0063 12.2154 41.7087 11.9127 41.3403 11.7238C40.972 11.5349 40.5525 11.4699 40.1442 11.5385Z" fill="#D6A217"/>
</g>
<defs>
<clipPath id="clip0_3_72">
<rect width="50" height="50" fill="white"/>
</clipPath>
</defs>
</svg>
